<svg width="36" height="36" viewBox="0 0 36 36" fill="none" xmlns="http://www.w3.org/2000/svg">
<path fill-rule="evenodd" clip-rule="evenodd" d="M15.8432 6.52003C18.6859 3.70863 21.685 0.742493 25.6207 0.742493C30.5707 0.742493 35.0707 5.01749 35.5207 9.96749C35.5207 12.8925 34.1707 15.3675 32.1457 17.3925L26.2957 23.2425C24.7207 25.0425 22.2457 26.1675 19.5457 26.1675C15.4957 26.1675 12.7957 23.6925 10.9957 20.3175L13.9207 17.3925C15.0457 19.8675 16.6207 21.8925 19.7707 21.8925C21.1207 21.8925 22.9207 21.2175 23.8207 20.3175L29.6707 14.4675C31.9207 12.2175 31.9207 8.61749 29.6707 6.36749C28.5457 5.46749 26.9707 4.79249 25.6207 4.79249C23.1131 4.79249 21.3818 6.53922 19.7058 8.23015C19.5772 8.35986 19.449 8.48925 19.3207 8.61749C18.1957 8.16749 17.0707 7.94249 15.9457 7.94249C15.5741 7.94249 15.2026 8.01068 14.8685 8.07198C14.5957 8.12203 14.348 8.16749 14.1457 8.16749C14.7095 7.64134 15.2732 7.08379 15.8432 6.52003ZM13.9207 29.9925L15.9457 27.9675C16.8457 28.4175 17.7457 28.4175 18.8707 28.4175C19.5457 28.4175 20.2207 28.4175 20.8957 28.1925L16.6207 32.4675C13.2457 36.2925 6.94574 36.0675 3.34574 32.4675C-0.47926 28.8675 -0.47926 22.7925 3.34574 18.9675L9.19574 13.1175C10.7707 11.3175 13.2457 10.1925 15.9457 10.1925C19.9957 10.1925 22.6957 12.6675 24.4957 16.0425L21.5707 18.9675C20.4457 16.7175 18.8707 14.4675 15.7207 14.4675C14.3707 14.4675 12.5707 15.1425 11.6707 16.0425L5.82074 21.8925C3.57074 23.9175 3.57074 27.7425 5.82074 29.9925C6.94574 30.8925 8.52074 31.5675 9.87074 31.5675C11.2207 31.5675 13.0207 30.8925 13.9207 29.9925Z" fill="#000000"/>
</svg>
