<svg width="23" height="22" viewBox="0 0 23 22" fill="none" xmlns="http://www.w3.org/2000/svg">
<path fill-rule="evenodd" clip-rule="evenodd" d="M14.9998 13.0034L21.5362 19.5401C22.1356 20.1392 22.1805 21.075 21.6362 21.6194C21.0918 22.164 20.1561 22.1185 19.5567 21.5194L13.0236 14.9857C11.6765 15.942 10.0312 16.5059 8.25325 16.5059C3.69543 16.5059 0 12.8105 0 8.25294C0 3.69482 3.69543 0 8.25325 0C12.8111 0 16.5059 3.69482 16.5059 8.25294C16.5059 10.0221 15.9475 11.66 14.9998 13.0034ZM8.25328 2.7521C5.21993 2.7521 2.75234 5.2197 2.75234 8.25274C2.75234 11.2858 5.21993 13.7534 8.25328 13.7534C11.2863 13.7534 13.7536 11.2858 13.7536 8.25274C13.7536 5.2197 11.2863 2.7521 8.25328 2.7521Z" fill="#000000"/>
</svg>