<svg width="114" height="114" viewBox="0 0 114 114" fill="none" xmlns="http://www.w3.org/2000/svg">
<circle cx="57" cy="57" r="57" fill="#EDEDED"/>
<circle cx="57" cy="57" r="48" fill="white"/>
<mask id="mask0_2_8" style="mask-type:luminance" maskUnits="userSpaceOnUse" x="9" y="9" width="96" height="96">
<circle cx="57" cy="57" r="48" fill="white"/>
</mask>
<g mask="url(#mask0_2_8)">
</g>
<g clip-path="url(#clip0_2_8)">
<path d="M33 36.5V64.9L45.9 51.7L57.3 63.1L81.4 39V36.8C81.4 34.7 79.7 33.1 77.7 33.1C68.6 33.1 45.2 33.2 36.4 33.1C34.5 33.1 33 34.6 33 36.5Z" fill="#F7991F"/>
<path d="M51.6 57.3L45.8 63.2L51.6 69.1V57.3Z" fill="#F7991F"/>
<path d="M32.8999 76V78C32.8999 79.9 34.4999 81.5 36.3999 81.5H77.9999C79.8999 81.5 81.3999 80 81.3999 78.1V50.4L57.2999 74.5L45.8999 63.1C45.8999 63.1 32.9999 76.1 32.8999 76Z" fill="#F15823"/>
</g>
<defs>
<clipPath id="clip0_2_8">
<rect width="50" height="49" fill="white" transform="translate(32 33)"/>
</clipPath>
</defs>
</svg>
