<svg width="114" height="114" viewBox="0 0 114 114" fill="none" xmlns="http://www.w3.org/2000/svg">
<circle cx="57" cy="57" r="57" fill="#EDEDED"/>
<circle cx="57" cy="57" r="48" fill="white"/>
<mask id="mask0_2_9" style="mask-type:luminance" maskUnits="userSpaceOnUse" x="9" y="9" width="96" height="96">
<circle cx="57" cy="57" r="48" fill="white"/>
</mask>
<g mask="url(#mask0_2_9)">
</g>
<g clip-path="url(#clip0_2_9)">
<g clip-path="url(#clip1_2_9)">
<path d="M87.7536 54.3783L59.8266 26.265C58.2197 24.6458 55.6115 24.6458 54.0026 26.265L48.2039 32.1037L55.5594 39.5092C57.2693 38.9279 59.2293 39.3176 60.5917 40.6896C61.9612 42.0701 62.3456 44.0602 61.7537 45.7876L68.8431 52.9251C70.5583 52.3301 72.5372 52.7145 73.9067 54.0958C75.8214 56.023 75.8214 59.1457 73.9067 61.0734C71.9917 63.0017 68.89 63.0017 66.9739 61.0734C65.5342 59.6228 65.1781 57.4931 65.9073 55.7071L59.2957 49.0506L59.2951 66.5672C59.7619 66.7999 60.2025 67.1104 60.5915 67.5003C62.5056 69.4273 62.5056 72.5495 60.5915 74.4796C58.6767 76.4065 55.5736 76.4065 53.6609 74.4796C51.7465 72.5496 51.7465 69.4274 53.6609 67.5003C54.134 67.0249 54.6815 66.6649 55.2656 66.4237V48.7443C54.6812 48.5041 54.1344 48.1468 53.6606 47.6675C52.2105 46.2087 51.8612 44.066 52.6049 42.2732L45.3538 34.9717L26.2066 54.2484C24.5978 55.8689 24.5978 58.4949 26.2066 60.1142L54.1319 88.2276C55.7397 89.8468 58.3471 89.8468 59.9571 88.2276L87.7533 60.2471C89.3616 58.627 89.3616 56.0003 87.7533 54.3807" fill="#F05133"/>
</g>
</g>
<defs>
<clipPath id="clip0_2_9">
<rect width="64" height="65" fill="white" transform="translate(25 25)"/>
</clipPath>
<clipPath id="clip1_2_9">
<rect width="64" height="65" fill="white" transform="translate(25 25)"/>
</clipPath>
</defs>
</svg>
