<svg width="114" height="114" viewBox="0 0 114 114" fill="none" xmlns="http://www.w3.org/2000/svg">
<circle cx="57" cy="57" r="57" fill="#EDEDED"/>
<circle cx="57" cy="57" r="48" fill="white"/>
<mask id="mask0_2_7" style="mask-type:luminance" maskUnits="userSpaceOnUse" x="9" y="9" width="96" height="96">
<circle cx="57" cy="57" r="48" fill="white"/>
</mask>
<g mask="url(#mask0_2_7)">
</g>
<g clip-path="url(#clip0_2_7)">
<g clip-path="url(#clip1_2_7)">
<g clip-path="url(#clip2_2_7)">
<g clip-path="url(#clip3_2_7)">
<g clip-path="url(#clip4_2_7)">
<path fill-rule="evenodd" clip-rule="evenodd" d="M55.4951 34.064C46.4345 34.064 39.0894 35.0677 39.0894 36.3058C39.0894 37.5439 46.4345 38.5475 55.4951 38.5475C64.5556 38.5475 71.9008 37.5439 71.9008 36.3058C71.9008 35.0677 64.5556 34.064 55.4951 34.064ZM55.5075 39.2967C59.9124 39.2967 64.0589 39.0585 67.1831 38.6262C68.7309 38.4121 69.9553 38.1595 70.8223 37.8759C71.0294 37.8081 71.3805 37.6923 71.7181 37.5077L69.6223 56.7362C69.185 57.1194 68.7969 57.4562 68.4654 57.7386C67.9821 58.1509 67.5829 58.4795 67.2687 58.7244C66.9546 58.9694 66.71 59.1412 66.5357 59.2404C66.3617 59.3396 66.2293 59.3893 66.1396 59.3893C66.0287 59.3893 65.9495 59.366 65.902 59.3196C65.8544 59.2729 65.8305 59.2126 65.8305 59.1382C65.8356 59.0824 65.9061 58.9755 66.0404 58.8171C66.1752 58.6591 66.3417 58.4672 66.5399 58.2406C66.7381 58.0144 66.9506 57.7635 67.1778 57.4876C67.4047 57.2116 67.6161 56.9282 67.8116 56.6366C68.0072 56.3456 68.1695 56.0558 68.2989 55.7676C68.4284 55.4793 68.4929 55.2083 68.4929 54.9538C68.4929 54.7616 68.4507 54.5927 68.3662 54.4472C68.2819 54.3015 68.1722 54.1808 68.0373 54.0844C67.9029 53.9884 67.7494 53.9155 67.5778 53.866C67.4062 53.8163 67.2331 53.7915 67.0588 53.7915C66.8054 53.7915 66.5516 53.8443 66.2983 53.9493C66.0445 54.0553 65.7963 54.1912 65.5531 54.3588C65.31 54.5258 65.0751 54.7138 64.8478 54.9215C64.6206 55.129 64.4092 55.3381 64.214 55.549C64.2299 55.5118 64.2469 55.453 64.2655 55.3725C64.284 55.2918 64.3014 55.2064 64.3172 55.1167C64.333 55.0269 64.3459 54.9415 64.3566 54.8608C64.3672 54.7803 64.3724 54.7214 64.3724 54.6842C64.3724 54.4982 64.3249 54.3573 64.2299 54.2609C64.1348 54.1651 63.9815 54.1169 63.7702 54.1169C63.6329 54.1169 63.5046 54.1899 63.3857 54.3355C63.2672 54.481 63.1599 54.6532 63.0649 54.8514C62.9699 55.0498 62.8852 55.2512 62.8115 55.456C62.7375 55.6607 62.6793 55.8186 62.637 55.9303C62.5652 56.1832 62.4837 56.4418 62.3945 56.7057C62.3489 56.7246 62.3074 56.7498 62.2727 56.7855C62.1247 56.9344 61.9567 57.0971 61.7692 57.2737C61.5818 57.4504 61.3851 57.6269 61.1788 57.8038C60.9729 57.9806 60.7656 58.1509 60.5567 58.3151C60.3483 58.4795 60.1477 58.6253 59.9546 58.7521C59.7617 58.8791 59.5822 58.9817 59.4158 59.059C59.2493 59.1367 59.1107 59.1754 58.9999 59.1754C58.9101 59.1754 58.8494 59.1474 58.8177 59.0915C58.786 59.0357 58.7702 58.9613 58.7702 58.8687C58.7702 58.7198 58.7977 58.5507 58.8533 58.3618C58.9086 58.1728 58.9653 58.0067 59.0234 57.8642C59.1558 57.5296 59.3127 57.1343 59.4949 56.6787C59.6772 56.2228 59.8729 55.7412 60.0813 55.2327C60.2901 54.7244 60.5041 54.2023 60.7232 53.6659C60.9423 53.1298 61.1564 52.6138 61.3651 52.1178C61.5737 51.622 61.7692 51.1632 61.9516 50.7416C62.1339 50.3201 62.2912 49.9639 62.423 49.6722C62.4918 49.5297 62.5486 49.3965 62.5935 49.2725C62.6383 49.1486 62.661 49.0307 62.661 48.9192C62.661 48.6836 62.5935 48.5133 62.4586 48.4077C62.3238 48.3023 62.1746 48.2497 62.0112 48.2497C61.8473 48.2497 61.6849 48.2994 61.5235 48.3984C61.3627 48.4976 61.2344 48.6681 61.1394 48.9099L58.7385 54.9073C58.5797 55.3041 58.4055 55.7412 58.2154 56.2185C58.0251 56.6958 57.8375 57.176 57.6527 57.6598C57.5511 57.9156 57.4638 58.1969 57.3893 58.5012C57.3227 58.5563 57.2556 58.6088 57.189 58.6591C56.9224 58.8606 56.6674 59.017 56.4244 59.1287C56.1813 59.2404 55.978 59.2963 55.8141 59.2963C55.5818 59.2963 55.4657 59.1846 55.4657 58.9613C55.4657 58.7198 55.5011 58.4577 55.5726 58.1758C55.644 57.8937 55.7334 57.6054 55.8422 57.311C55.9501 57.0164 56.068 56.7269 56.1947 56.4414C56.3212 56.1565 56.4387 55.8884 56.5471 55.6374C56.6553 55.3863 56.7451 55.163 56.8166 54.9678C56.888 54.7726 56.9235 54.6189 56.9235 54.5073C56.9235 54.3091 56.8682 54.1388 56.7574 53.996C56.6461 53.8535 56.4958 53.7821 56.3054 53.7821C56.1313 53.7821 55.9857 53.8505 55.8698 53.9867C55.7534 54.1231 55.6506 54.2934 55.5607 54.4982C55.4709 54.7029 55.3876 54.9258 55.311 55.1677C55.2345 55.4093 55.146 55.6359 55.0455 55.8464C54.903 56.1627 54.7248 56.5111 54.5107 56.8924C54.2967 57.2737 54.0578 57.6303 53.7936 57.9619C53.5292 58.2935 53.2415 58.5709 52.9299 58.7941C52.618 59.017 52.2905 59.1287 51.9473 59.1287C51.8258 59.1287 51.7385 59.0824 51.6857 58.9894C51.6327 58.8963 51.6065 58.7941 51.6065 58.6826C51.6169 58.4162 51.662 58.1418 51.7412 57.8597C51.8204 57.5776 51.9156 57.3004 52.0265 57.0274C52.1374 56.7545 52.2575 56.4911 52.387 56.2372C52.5164 55.9828 52.6393 55.7457 52.7553 55.5257C52.8717 55.3056 52.9735 55.1104 53.0608 54.9396C53.1475 54.7692 53.2043 54.6318 53.2309 54.5258C53.2467 54.4705 53.2548 54.4113 53.2548 54.3493C53.2548 54.2563 53.2333 54.1742 53.1915 54.1031C53.1491 54.0319 53.0934 53.9729 53.025 53.9263C52.9561 53.8798 52.8824 53.8458 52.8028 53.824C52.7236 53.8025 52.6471 53.7915 52.573 53.7915C52.404 53.7915 52.2471 53.8427 52.1015 53.945C51.9565 54.0472 51.8283 54.2161 51.7174 54.4519C51.2843 55.3443 50.9488 56.1037 50.7108 56.7297C50.4734 57.3559 50.2977 57.8659 50.1841 58.2593C50.0704 58.6529 50.0031 58.9412 49.982 59.124C49.9609 59.3071 49.9503 59.4016 49.9503 59.4078C49.9503 59.6742 49.9873 59.8961 50.0612 60.0727C50.1353 60.2492 50.2328 60.3904 50.3544 60.4956C50.4759 60.601 50.6171 60.6753 50.7783 60.7189C50.9396 60.7622 51.1072 60.7839 51.2816 60.7839C51.6671 60.7839 52.0237 60.7204 52.3514 60.5933C52.6788 60.4663 52.9744 60.3004 53.239 60.096C53.503 59.8913 53.738 59.6651 53.9443 59.417C54.1502 59.1693 54.3218 58.9243 54.4591 58.6826C54.3748 59.0605 54.3325 59.3921 54.3325 59.6776C54.3325 60.0803 54.4115 60.3656 54.5699 60.5328C54.7287 60.7002 54.9346 60.7839 55.1885 60.7839C55.4417 60.7839 55.7272 60.7142 56.044 60.5746C56.361 60.4353 56.6833 60.2507 57.0108 60.0217C57.1051 59.9555 57.1986 59.8859 57.2914 59.8143L57.2932 59.8271C57.3007 59.8802 57.3082 59.9333 57.3197 59.9843C57.3566 60.1455 57.4189 60.2851 57.5062 60.4028C57.5935 60.5203 57.7095 60.6133 57.8549 60.6817C58.0001 60.7499 58.1809 60.7839 58.3974 60.7839C58.7146 60.7839 59.0408 60.7093 59.3764 60.5608C59.7115 60.4119 60.0496 60.212 60.3906 59.961C60.7313 59.7099 61.0732 59.4203 61.4168 59.0915C61.433 59.0758 61.4492 59.059 61.4658 59.043C61.443 59.0953 61.4207 59.1473 61.3984 59.1994L61.3983 59.1997L61.3982 59.1997L61.3982 59.1998C61.3666 59.2735 61.3351 59.3472 61.3019 59.4218C61.0296 60.0325 60.7457 60.6492 60.45 61.272C60.1543 61.8952 59.8637 62.5166 59.5782 63.1364C59.5362 63.2481 59.4898 63.3641 59.4398 63.4852C59.3896 63.6061 59.3406 63.7297 59.2931 63.8571C59.2456 63.984 59.2058 64.1129 59.1741 64.2431C59.1424 64.3731 59.1266 64.5001 59.1266 64.6242C59.1266 64.8781 59.1888 65.0503 59.3127 65.1402C59.4372 65.2298 59.594 65.275 59.7845 65.275C59.9322 65.275 60.0655 65.2427 60.1845 65.1773C60.3035 65.1123 60.4091 65.0256 60.5015 64.9173C60.594 64.8086 60.6757 64.683 60.7472 64.5407C60.8183 64.3976 60.8805 64.2461 60.9331 64.0849C60.9489 64.029 60.9863 63.9235 61.0444 63.7688C61.1022 63.6137 61.1696 63.4338 61.2463 63.2294C61.3229 63.0249 61.4051 62.8076 61.4918 62.5786C61.5791 62.349 61.6625 62.1304 61.7417 61.9229C61.8207 61.7153 61.8908 61.5339 61.9516 61.3789C62.0123 61.2238 62.0558 61.1186 62.0822 61.063C62.1034 61.0194 62.139 60.9402 62.1895 60.8257L62.2625 60.6583L62.3596 60.4353C62.423 60.2898 62.493 60.1347 62.5695 59.9701C62.6461 59.8063 62.7187 59.6466 62.7875 59.4915C62.8561 59.3366 62.9195 59.1969 62.9776 59.0729C63.0359 58.9492 63.0807 58.853 63.1124 58.7846C63.2182 58.5679 63.3462 58.3308 63.4969 58.0736C63.6476 57.8164 63.8137 57.5606 63.9961 57.3062C64.1784 57.0523 64.374 56.8074 64.5823 56.5718C64.7911 56.3364 65.0051 56.127 65.2242 55.9441C65.4433 55.7614 65.6655 55.6153 65.8903 55.507C66.1145 55.3986 66.3325 55.3443 66.5438 55.3443C66.6651 55.3443 66.7524 55.3663 66.8054 55.4093C66.858 55.453 66.8846 55.5118 66.8846 55.5862C66.8846 55.7102 66.8212 55.8713 66.6941 56.0697C66.5674 56.2682 66.4077 56.4868 66.215 56.725C66.0221 56.9639 65.812 57.2165 65.5848 57.4829C65.3575 57.7495 65.1437 58.0131 64.9429 58.2735C64.7422 58.5337 64.5706 58.7846 64.4281 59.0265C64.2855 59.2681 64.2033 59.4823 64.1824 59.668C64.1769 59.6991 64.1743 59.7256 64.1743 59.7472V59.8169C64.1743 60.1209 64.284 60.3594 64.5031 60.5328C64.7222 60.7063 65.0328 60.7932 65.4343 60.7932C65.8622 60.7932 66.2636 60.7127 66.6389 60.5513C67.014 60.3904 67.3985 60.1623 67.7918 59.8679C68.1854 59.5735 68.6042 59.2217 69.0481 58.8128C69.1673 58.7026 69.2919 58.5888 69.4199 58.4724L67.8727 71.7739C67.5972 72.4696 62.3163 74.1819 55.3529 74.1819C48.3927 74.1819 43.1138 72.4713 42.8334 71.775L41.7563 60.5872L41.7577 60.5881C41.8025 60.6203 41.8475 60.6527 41.8951 60.6817C42.1621 60.8429 42.4804 60.9236 42.8502 60.9236C43.1725 60.9236 43.508 60.8459 43.8566 60.691C44.2051 60.536 44.5511 60.3361 44.8947 60.0912C45.2379 59.8464 45.5734 59.5705 45.9011 59.2638C46.2287 58.9568 46.5321 58.6486 46.8125 58.3385C46.7173 58.6299 46.6101 58.9598 46.4915 59.3286C46.3727 59.6976 46.2617 60.054 46.1587 60.3981C46.0556 60.7422 45.9671 61.0505 45.8932 61.323C45.8191 61.596 45.7793 61.782 45.7742 61.8814C45.7689 61.9305 45.7665 61.9772 45.7665 62.0208V62.151C45.7665 62.4484 45.8046 62.6529 45.8813 62.7647C45.9577 62.876 46.0806 62.9318 46.2496 62.9318C46.3501 62.9318 46.4478 62.896 46.5428 62.8248C46.6381 62.7538 46.7252 62.6636 46.8044 62.5552C46.8838 62.4469 46.9524 62.332 47.0105 62.2111C47.0684 62.0904 47.1108 61.9802 47.1372 61.8814C47.1478 61.85 47.1768 61.751 47.2243 61.5836C47.272 61.416 47.3314 61.2085 47.4027 60.9608C47.4738 60.7127 47.5545 60.4353 47.6445 60.1285C47.7342 59.8216 47.8279 59.5085 47.9258 59.1892C48.0235 58.87 48.1183 58.5571 48.2109 58.2501C48.3033 57.9432 48.3893 57.666 48.4685 57.4179C48.5479 57.1702 48.615 56.9639 48.6705 56.7993C48.7261 56.6351 48.7644 56.5378 48.7855 56.5068C48.8804 56.2339 48.9782 55.9719 49.0785 55.7209C49.1789 55.4698 49.2701 55.2202 49.352 54.9725C49.434 54.7244 49.5013 54.4705 49.5541 54.2099C49.6069 53.9493 49.6333 53.6706 49.6333 53.373C49.6333 53.2615 49.6162 53.1638 49.5818 53.0803C49.5475 52.9964 49.5013 52.9284 49.4432 52.8755C49.385 52.823 49.3192 52.7842 49.2451 52.7593C49.1709 52.7347 49.097 52.7222 49.0233 52.7222C48.87 52.7222 48.7206 52.7718 48.5754 52.871C48.4301 52.9702 48.3126 53.1376 48.2228 53.373L47.4859 55.5582C47.3959 55.7442 47.2613 55.9628 47.0816 56.2139C46.9021 56.4648 46.6959 56.7269 46.4636 56.9994C46.2313 57.2724 45.9805 57.5419 45.7109 57.8083C45.4414 58.0751 45.1732 58.3136 44.9064 58.5246C44.6398 58.7351 44.3822 58.9058 44.134 59.0357C43.8855 59.1659 43.6637 59.2309 43.4682 59.2309C43.2939 59.2309 43.1501 59.1831 43.0363 59.0867C42.9228 58.9908 42.8329 58.8687 42.7671 58.7198C42.7009 58.5709 42.6562 58.4052 42.6322 58.2221C42.6087 58.0396 42.5966 57.8612 42.5966 57.6875C42.5966 57.1668 42.6824 56.5795 42.8542 55.9256C43.026 55.2718 43.2568 54.6084 43.5474 53.9355C43.838 53.263 44.1723 52.606 44.55 51.9644C44.9277 51.3227 45.3226 50.7526 45.7348 50.2534C46.1466 49.7544 46.5626 49.353 46.9828 49.0494C47.4027 48.7457 47.7976 48.5938 48.1674 48.5938C48.4052 48.5938 48.6256 48.6605 48.8291 48.7937C49.0324 48.927 49.2185 49.1423 49.3876 49.4399C49.5673 49.7685 49.7297 50.021 49.8751 50.1978C50.0203 50.3743 50.1774 50.4627 50.3467 50.4627C50.5315 50.4627 50.6914 50.3821 50.826 50.2209C50.9607 50.0599 51.028 49.8396 51.028 49.5607C51.028 49.443 51.0163 49.3175 50.9924 49.1841C50.9688 49.0509 50.9118 48.9192 50.8221 48.789C50.431 48.2063 50.0112 47.7847 49.5622 47.5245C49.1131 47.264 48.648 47.1338 48.1674 47.1338C47.7501 47.1338 47.3288 47.2239 46.9034 47.4036C46.4781 47.5833 46.0569 47.8329 45.6396 48.152C45.2221 48.4714 44.8155 48.8525 44.4191 49.2956C44.0229 49.7389 43.649 50.2241 43.2979 50.7509C42.9466 51.2779 42.6217 51.8374 42.3232 52.4292C42.0248 53.0212 41.762 53.6273 41.5347 54.2471C41.4237 54.5496 41.3235 54.8531 41.2336 55.1571L39.2979 37.5083C39.6353 37.6925 39.9858 37.8081 40.1927 37.8759C41.0599 38.1595 42.2843 38.4121 43.8319 38.6262C46.9562 39.0585 51.1027 39.2967 55.5075 39.2967ZM46.2251 73.9181C47.8068 74.2957 51.0961 74.9292 55.3529 74.9292C59.6095 74.9292 62.8988 74.2957 64.4805 73.9181C65.5757 73.6568 66.452 73.3861 67.1147 73.1079L65.1186 76.5675L64.4652 87.8452C64.4652 89.0959 60.4547 90.1098 55.5075 90.1098C50.5603 90.1098 46.5498 89.0959 46.5498 87.8452L45.7246 76.6889L43.6151 73.1184C44.2749 73.3928 45.1434 73.66 46.2251 73.9181ZM60.0958 37.487C61.1728 37.487 62.0457 37.2514 62.0457 36.9609C62.0457 36.6703 61.1728 36.4347 60.0958 36.4347C59.0191 36.4347 58.1462 36.6703 58.1462 36.9609C58.1462 37.2514 59.0191 37.487 60.0958 37.487Z" fill="#DA4648"/>
<path d="M58.541 36.7284C58.5314 36.7436 58.5264 36.7592 58.5264 36.7751C58.5264 36.9632 59.2292 37.1154 60.0958 37.1154C60.9627 37.1154 61.6653 36.9632 61.6653 36.7751L63.7153 28.5407L71.8678 20.0137C71.8705 20.0111 71.873 20.0084 71.8755 20.0056C72.0481 19.8123 71.6979 19.2139 71.1169 18.7007C70.5359 18.1876 69.9085 18.0138 69.7136 18.2092C69.7121 18.2107 69.7107 18.2122 69.7093 18.2137L61.011 27.2812L58.541 36.7284Z" fill="#DA4648"/>
</g>
</g>
</g>
</g>
</g>
<defs>
<clipPath id="clip0_2_7">
<rect width="33" height="73" fill="white" transform="translate(39 18)"/>
</clipPath>
<clipPath id="clip1_2_7">
<rect width="33" height="73" fill="white" transform="translate(39 18)"/>
</clipPath>
<clipPath id="clip2_2_7">
<rect width="33" height="73" fill="white" transform="translate(39 18)"/>
</clipPath>
<clipPath id="clip3_2_7">
<rect width="33" height="73" fill="white" transform="translate(39 18)"/>
</clipPath>
<clipPath id="clip4_2_7">
<rect width="33" height="73" fill="white" transform="translate(39 18)"/>
</clipPath>
</defs>
</svg>
