<svg width="114" height="114" viewBox="0 0 114 114" fill="none" xmlns="http://www.w3.org/2000/svg">
<g id="responsive" clip-path="url(#clip0_0_831)">
<circle id="Oval" cx="57" cy="57" r="57" fill="#EDEDED"/>
<circle id="Oval Copy" cx="57" cy="57" r="48" fill="white"/>
<mask id="mask0_0_831" style="mask-type:luminance" maskUnits="userSpaceOnUse" x="9" y="9" width="96" height="96">
<circle id="Oval Copy_2" cx="57" cy="57" r="48" fill="white"/>
</mask>
<g mask="url(#mask0_0_831)">
</g>
<g id="responsive_2" clip-path="url(#clip1_0_831)">
<g id="Shape">
<path fill-rule="evenodd" clip-rule="evenodd" d="M44.7129 22.579H90.731C92.3533 22.579 93.6814 23.9178 93.6814 25.5538V87.8459C93.6814 89.4823 92.3485 90.8212 90.731 90.8212H44.7129C43.0954 90.8212 41.7634 89.4771 41.7634 87.8459V25.5538C41.7634 23.9226 43.0911 22.579 44.7129 22.579ZM66.6519 25.4426C66.6519 24.8464 67.1314 24.3628 67.7222 24.3628C68.3134 24.3628 68.7919 24.8464 68.7919 25.4426C68.7919 26.0383 68.3134 26.5209 67.7222 26.5209C67.1314 26.5209 66.6519 26.0383 66.6519 25.4426Z" fill="black" fill-opacity="0.01"/>
<path d="M90.731 20.579H44.7129V24.579H90.731V20.579ZM95.6814 25.5538C95.6814 22.8287 93.4733 20.579 90.731 20.579V24.579C91.2333 24.579 91.6814 25.0069 91.6814 25.5538H95.6814ZM95.6814 87.8459V25.5538H91.6814V87.8459H95.6814ZM90.731 92.8212C93.4666 92.8212 95.6814 90.5734 95.6814 87.8459H91.6814C91.6814 88.3913 91.2304 88.8212 90.731 88.8212V92.8212ZM44.7129 92.8212H90.731V88.8212H44.7129V92.8212ZM39.7634 87.8459C39.7634 90.5649 41.9742 92.8212 44.7129 92.8212V88.8212C44.2166 88.8212 43.7634 88.3892 43.7634 87.8459H39.7634ZM39.7634 25.5538V87.8459H43.7634V25.5538H39.7634ZM44.7129 20.579C41.9684 20.579 39.7634 22.8363 39.7634 25.5538H43.7634C43.7634 25.009 44.2138 24.579 44.7129 24.579V20.579ZM67.7222 22.3628C66.0105 22.3628 64.6519 23.7582 64.6519 25.4426H68.6519C68.6519 25.9345 68.2524 26.3628 67.7222 26.3628V22.3628ZM70.7919 25.4426C70.7919 23.76 69.4361 22.3628 67.7222 22.3628V26.3628C67.1907 26.3628 66.7919 25.9327 66.7919 25.4426H70.7919ZM67.7222 28.5209C69.4332 28.5209 70.7919 27.1276 70.7919 25.4426H66.7919C66.7919 24.949 67.1936 24.5209 67.7222 24.5209V28.5209ZM64.6519 25.4426C64.6519 27.1293 66.0134 28.5209 67.7222 28.5209V24.5209C68.2495 24.5209 68.6519 24.9473 68.6519 25.4426H64.6519Z" fill="white"/>
</g>
<path id="Shape_2" fill-rule="evenodd" clip-rule="evenodd" d="M44.4741 22.3382H90.4922C92.1145 22.3382 93.4426 23.677 93.4426 25.313V87.6051C93.4426 89.2415 92.1097 90.5804 90.4922 90.5804H44.4741C42.8566 90.5804 41.5247 89.2362 41.5247 87.6051V25.313C41.5247 23.6818 42.8523 22.3382 44.4741 22.3382ZM66.4132 25.2018C66.4132 24.6055 66.8927 24.122 67.4834 24.122C68.0746 24.122 68.5532 24.6055 68.5532 25.2018C68.5532 25.7975 68.0746 26.2801 67.4834 26.2801C66.8927 26.2801 66.4132 25.7975 66.4132 25.2018Z" fill="#393939"/>
<path id="Shape_3" d="M46.9614 28.1154H88.0056V84.8017H46.9614V28.1154Z" fill="white"/>
<path id="Shape_4" d="M50.7642 56.3367H65.725C66.2813 56.3367 66.7369 56.7961 66.7369 57.3572V67.7289C66.7369 68.29 66.2813 68.7495 65.725 68.7495H50.7642C50.2078 68.7495 49.7522 68.29 49.7522 67.7289V57.3572C49.7522 56.7961 50.2078 56.3367 50.7642 56.3367" fill="#E4695D"/>
<path id="Shape_5" d="M69.3833 56.3367H84.3441C84.9005 56.3367 85.3561 56.7961 85.3561 57.3572V67.7289C85.3561 68.29 84.9005 68.7495 84.3441 68.7495H69.3833C68.8269 68.7495 68.3713 68.29 68.3713 67.7289V57.3572C68.3713 56.7961 68.8269 56.3367 69.3833 56.3367" fill="#DADADA"/>
<path id="Shape_6" d="M68.3723 71.2167H85.3571V72.4164H68.3723V71.2167Z" fill="#DADADA"/>
<path id="Shape_7" d="M68.3723 74.0442H85.3571V75.2438H68.3723V74.0442Z" fill="#DADADA"/>
<path id="Shape_8" d="M68.3723 76.8716H80.9209V78.0713H68.3723V76.8716Z" fill="#DADADA"/>
<path id="Shape_9" d="M68.3723 79.6991H85.3571V80.8983H68.3723V79.6991Z" fill="#DADADA"/>
<path id="Shape_10" d="M68.3723 82.5266H77.6434V83.7258H68.3723V82.5266Z" fill="#DADADA"/>
<path id="Shape_11" d="M49.6104 82.5266H66.5951V83.7258H49.6104V82.5266Z" fill="#DADADA"/>
<path id="Shape_12" d="M49.6104 79.6991H62.159V80.8983H49.6104V79.6991Z" fill="#DADADA"/>
<path id="Shape_13" d="M49.6104 76.8716H66.5951V78.0713H49.6104V76.8716Z" fill="#DADADA"/>
<path id="Shape_14" d="M49.6104 74.0451H65.2097V75.2443H49.6104V74.0451Z" fill="#DADADA"/>
<path id="Shape_15" d="M49.6104 71.2177H61.3189V72.4168H49.6104V71.2177Z" fill="#DADADA"/>
<path id="Shape_16" d="M42.3098 48.7454H21.8507C20.0579 48.7454 18.5913 50.2485 18.5913 52.0333V92.4713C18.5913 94.2561 20.0818 95.7592 21.8507 95.7592H42.3098C44.0797 95.7592 45.5701 94.2797 45.5701 92.4713V52.0333C45.5701 50.2249 44.1031 48.7454 42.3098 48.7454Z" fill="black" fill-opacity="0.01" stroke="white" stroke-width="4" stroke-linecap="round" stroke-linejoin="round"/>
<path id="Shape_17" d="M42.071 48.5046H21.6119C19.8192 48.5046 18.3525 50.0077 18.3525 51.7925V92.2305C18.3525 94.0153 19.843 95.5184 21.6119 95.5184H42.071C43.8409 95.5184 45.3314 94.0389 45.3314 92.2305V51.7925C45.3314 49.9841 43.8643 48.5046 42.071 48.5046" fill="#393939"/>
<g id="iphone" clip-path="url(#clip2_0_831)">
<path id="Shape_18" d="M39.6804 68.4125H23.8055C23.2988 68.4125 22.8843 68.8315 22.8843 69.342V77.5605C22.8843 78.0705 23.3002 78.4895 23.8055 78.4895H39.6804C40.1866 78.4895 40.6021 78.0715 40.6021 77.5605V69.342C40.6021 68.831 40.1876 68.4125 39.6804 68.4125" fill="#E4695D"/>
<path id="Shape_19" d="M22.8838 82.3144H38.4831V83.3835H22.8838V82.3144Z" fill="#DADADA"/>
<path id="Shape_20" d="M22.8838 79.7946H34.5924V80.8638H22.8838V79.7946Z" fill="#DADADA"/>
<path id="Shape_21" d="M31.8415 88.8574C30.8004 88.8574 29.9551 89.7083 29.9551 90.7592C29.9551 91.81 30.8004 92.6615 31.8415 92.6615C32.8835 92.6615 33.7279 91.81 33.7279 90.7592C33.7279 89.7083 32.8835 88.8574 31.8415 88.8574" fill="white"/>
<path id="Shape_22" d="M36.0194 52.4479H27.6649C27.3606 52.4479 27.1123 52.6984 27.1123 53.0047C27.1123 53.3114 27.3606 53.5619 27.6649 53.5619H36.0194C36.3237 53.5619 36.571 53.3114 36.571 53.0047C36.571 52.6984 36.3237 52.4479 36.0194 52.4479" fill="white"/>
<path id="Shape_23" d="M20.8804 55.6771H42.8037V85.0147H20.8804V55.6771Z" fill="white"/>
<path id="Shape_24" d="M40.2616 58.1747H23.3356C23.0872 58.1747 22.8843 58.3798 22.8843 58.6302V66.5107C22.8843 66.7616 23.0872 66.9663 23.3356 66.9663H40.2616C40.5099 66.9663 40.7124 66.7616 40.7124 66.5107V58.6302C40.7124 58.3798 40.5099 58.1747 40.2616 58.1747" fill="#DADADA"/>
</g>
<g id="ipad" clip-path="url(#clip3_0_831)">
<path id="Shape_25" d="M50.7644 34.7846H84.3442C84.9006 34.7846 85.3562 35.2436 85.3562 35.8047V53.4616C85.3562 54.0217 84.9006 54.4811 84.3442 54.4811H50.7644C50.208 54.4811 49.7524 54.0217 49.7524 53.4616V35.8047C49.7524 35.2436 50.208 34.7846 50.7644 34.7846" fill="#DADADA"/>
<path id="Shape_26" d="M67.4836 23.3774C66.4415 23.3774 65.5977 24.2284 65.5977 25.2793C65.5977 26.3301 66.4415 27.1816 67.4836 27.1816C68.5252 27.1816 69.37 26.3301 69.37 25.2793C69.37 24.2284 68.5252 23.3774 67.4836 23.3774" fill="white"/>
</g>
</g>
</g>
<defs>
<clipPath id="clip0_0_831">
<rect width="114" height="114" fill="white"/>
</clipPath>
<clipPath id="clip1_0_831">
<rect width="76" height="74" fill="white" transform="translate(18 22)"/>
</clipPath>
<clipPath id="clip2_0_831">
<rect width="23" height="41" fill="white" transform="translate(20.7144 52.1481)"/>
</clipPath>
<clipPath id="clip3_0_831">
<rect width="37" height="32" fill="white" transform="translate(49.2144 23.3704)"/>
</clipPath>
</defs>
</svg>
