<svg width="114" height="114" viewBox="0 0 114 114" fill="none" xmlns="http://www.w3.org/2000/svg">
<g id="twig" clip-path="url(#clip0_0_823)">
<circle id="Oval" cx="57" cy="57" r="57" fill="#EDEDED"/>
<circle id="Oval Copy" cx="57" cy="57" r="48" fill="white"/>
<circle id="Oval Copy_2" cx="57" cy="57" r="48" fill="white"/>
<g id="twig-logo">
<path id="Vector" d="M39.3784 89.62C43.2627 89.62 46.4116 88.9685 46.4116 88.1649C46.4116 87.3612 43.2627 86.7097 39.3784 86.7097C35.4941 86.7097 32.3452 87.3612 32.3452 88.1649C32.3452 88.9685 35.4941 89.62 39.3784 89.62Z" fill="url(#paint0_radial_0_823)"/>
<path id="Vector_2" d="M36.9006 84.9066H41.5929C41.3082 78.8119 39.484 59.3467 36.5315 47.2521C37.0798 55.5507 37.6703 83.1562 36.9006 84.9066Z" fill="url(#paint1_linear_0_823)"/>
<path id="Vector_3" opacity="0.28" d="M36.9006 84.9593H38.8091C39.0516 71.1882 36.5315 47.3048 36.5315 47.3048C37.0798 55.6034 37.6703 83.2089 36.9006 84.9593Z" fill="url(#paint2_linear_0_823)"/>
<path id="Vector_4" opacity="0.33" d="M37.0693 83.8733L39.0622 84.4532C39.0622 84.4532 38.9356 79.55 40.2643 77.3357C40.6544 74.7944 37.4805 51.6175 36.6369 47.6739C36.6369 47.5368 36.5737 47.3892 36.5315 47.2521C37.0271 54.8231 37.5859 78.4428 37.0693 83.8733V83.8733Z" fill="url(#paint3_linear_0_823)"/>
<path id="Vector_5" d="M36.7634 88.4707L39.737 88.5972C39.8108 82.8399 37.723 72.8858 32.05 69.016C34.9393 72.6117 37.0271 76.9877 36.7634 88.4707V88.4707Z" fill="url(#paint4_linear_0_823)"/>
<path id="Vector_6" opacity="0.17" d="M32.4507 69.5432C35.1395 73.044 37.0376 77.536 36.795 88.5234L38.8196 88.6077C38.8934 86.3934 38.9461 74.7206 32.4929 69.5538L32.4507 69.5432Z" fill="url(#paint5_linear_0_823)"/>
<path id="Vector_7" d="M42.4046 88.6605C42.4995 89.0822 39.4416 89.3775 39.3362 89.2826C39.2307 89.1877 37.1113 75.0685 47.0653 76.4921C41.6665 76.724 41.2553 84.1158 42.4046 88.6605Z" fill="url(#paint6_linear_0_823)"/>
<path id="Vector_8" opacity="0.08" d="M39.3785 89.2826C40.026 89.2986 40.6733 89.242 41.3081 89.1139C41.1816 87.9223 40.5806 81.4164 42.0357 77.5782C38.0182 80.7415 39.2941 89.1771 39.3785 89.2826Z" fill="url(#paint7_linear_0_823)"/>
<path id="Vector_9" opacity="0.47" d="M40.2958 83.2195C41.0529 83.2195 41.6666 82.6577 41.6666 81.9647C41.6666 81.2717 41.0529 80.7099 40.2958 80.7099C39.5388 80.7099 38.925 81.2717 38.925 81.9647C38.925 82.6577 39.5388 83.2195 40.2958 83.2195Z" fill="url(#paint8_radial_0_823)"/>
<path id="Vector_10" opacity="0.47" d="M38.2922 83.2195C39.0492 83.2195 39.663 82.6577 39.663 81.9647C39.663 81.2717 39.0492 80.7099 38.2922 80.7099C37.5351 80.7099 36.9214 81.2717 36.9214 81.9647C36.9214 82.6577 37.5351 83.2195 38.2922 83.2195Z" fill="url(#paint9_radial_0_823)"/>
<path id="Vector_11" d="M38.2923 82.745C38.7232 82.745 39.0725 82.3956 39.0725 81.9647C39.0725 81.5337 38.7232 81.1844 38.2923 81.1844C37.8613 81.1844 37.512 81.5337 37.512 81.9647C37.512 82.3956 37.8613 82.745 38.2923 82.745Z" fill="white"/>
<path id="Vector_12" d="M40.2642 82.745C40.6951 82.745 41.0445 82.3956 41.0445 81.9647C41.0445 81.5337 40.6951 81.1844 40.2642 81.1844C39.8332 81.1844 39.4839 81.5337 39.4839 81.9647C39.4839 82.3956 39.8332 82.745 40.2642 82.745Z" fill="white"/>
<path id="Vector_13" d="M32.7141 86.6359L33.8318 88.5445H34.4434M35.8142 89.3775H37.1534L35.1604 84.0314M43.5961 89.0401H44.4713L45.125 84.9066M45.842 87.954H46.5907L46.9492 86.4356" fill="#A0CB29"/>
<path id="Vector_14" d="M60.6363 79.9401C60.3322 71.1508 60.4906 62.3515 61.1108 53.5788C61.5538 46.7102 62.4166 39.8751 63.6942 33.1118C63.8102 32.553 63.9157 32.0574 63.9157 32.0574C64.59 28.7497 65.4382 25.4799 66.4569 22.2615C67.1001 20.2475 67.427 19.2352 67.9331 18.0437C69.0126 15.4608 70.3404 12.9888 71.8979 10.6625C72.9146 9.04096 74.0644 7.50672 75.3354 6.07566C77.6236 3.55552 79.4583 1.59424 82.337 1.07756C83.6098 0.853101 84.9177 0.932588 86.1541 1.30954C89.3807 2.31127 91.1944 5.12666 90.9835 5.36918C90.7726 5.6117 87.1664 1.15137 83.6023 1.9633C81.6094 2.41671 80.2491 4.378 78.9311 6.28656C78.0059 7.77094 77.1917 9.3217 76.4953 10.9261C75.4408 13.1827 74.8609 14.5956 74.7238 14.9542C74.3758 15.8504 74.1333 16.578 73.6693 17.9488C73.2687 19.1298 72.9523 20.0577 72.6149 21.186C71.6764 24.1595 71.2019 25.6358 70.9172 26.6797C70.6325 27.7236 70.2635 29.126 69.6203 32.4792C68.7556 36.9606 68.1018 41.1151 67.8593 43.0237C67.1107 48.7072 66.3725 61.1392 67.2688 77.4727" fill="url(#paint10_linear_0_823)"/>
<path id="Vector_15" opacity="0.33" d="M60.2778 83.209C59.8501 74.522 60.0263 65.8159 60.805 57.1534C61.364 48.4477 62.4592 39.7848 64.0843 31.2139C64.1476 30.8764 64.232 30.4019 64.3585 29.8114C65.1519 25.499 66.4288 21.2898 68.1651 17.2634C69.0681 15.2076 70.1256 13.223 71.3284 11.3269C72.4989 9.50267 73.7431 7.87881 74.9979 6.24441C75.9575 5.00015 76.432 4.37802 76.6745 4.1355C79.7535 0.97214 84.5091 0.539814 84.6251 0.877239C84.7411 1.21466 81.4617 1.69971 78.2351 4.57837C76.2935 6.40149 74.7715 8.62504 73.7748 11.0949C71.4899 16.2639 69.8297 21.6869 68.8294 27.2491C67.3426 34.3772 66.6045 37.9413 66.0034 42.5071C65.2337 48.3382 65.0439 52.5033 64.6854 65.6101C64.485 72.8859 64.4534 76.9139 64.2952 85.0964" fill="url(#paint11_linear_0_823)"/>
<path id="Vector_16" opacity="0.28" d="M60.6363 79.9402C60.3322 71.1508 60.4906 62.3515 61.1108 53.5788C61.5538 46.7102 62.4166 39.8751 63.6942 33.1119C63.8102 32.553 63.9157 32.0574 63.9157 32.0574C64.59 28.7498 65.4382 25.4799 66.4569 22.2616C67.1001 20.2476 67.427 19.2353 67.9331 18.0438C69.0126 15.4608 70.3404 12.9888 71.8979 10.6626C72.9146 9.04101 74.0644 7.50677 75.3354 6.07571C78.9943 2.0477 81.3563 1.29904 82.337 1.0776C83.068 0.869614 83.8384 0.84068 84.5829 0.993248C83.5223 1.1777 82.4834 1.47099 81.4829 1.86844C80.3688 2.42747 79.39 3.22273 78.6147 4.19879C76.516 6.69541 74.6754 9.39803 73.121 12.2654C71.7554 14.8474 70.6159 17.5428 69.7152 20.3214C69.4199 21.2282 69.0508 22.4303 68.3338 24.9399C67.9542 26.1947 67.5535 27.5338 67.1212 29.1577C66.6889 30.7815 66.478 31.0663 64.6116 40.4087C63.8313 44.384 62.8401 59.1885 63.4412 79.4235" fill="url(#paint12_linear_0_823)"/>
<path id="Vector_17" d="M57.4833 84.9171L64.8644 85.2335C65.0437 70.8613 59.8347 45.9973 45.6628 36.3279C52.8753 45.2908 58.0948 56.2466 57.4516 84.9171H57.4833Z" fill="url(#paint13_linear_0_823)"/>
<path id="Vector_18" opacity="0.17" d="M46.6963 37.6355C53.4132 46.398 58.1582 57.6068 57.5466 85.012L62.608 85.2335C62.7872 79.7081 62.9138 50.542 46.6963 37.6355V37.6355Z" fill="url(#paint14_linear_0_823)"/>
<path id="Vector_19" d="M64.0103 87.7853C73.7124 87.7853 81.5775 86.1613 81.5775 84.158C81.5775 82.1546 73.7124 80.5306 64.0103 80.5306C54.3082 80.5306 46.4431 82.1546 46.4431 84.158C46.4431 86.1613 54.3082 87.7853 64.0103 87.7853Z" fill="url(#paint15_radial_0_823)"/>
<path id="Vector_20" d="M71.5605 85.4022C71.7925 86.4567 64.1793 87.1737 63.8946 86.9417C63.6099 86.7097 58.3587 51.4383 83.1911 54.9812C69.7258 55.5612 68.6924 74.0247 71.5605 85.4022Z" fill="url(#paint16_linear_0_823)"/>
<path id="Vector_21" opacity="0.08" d="M63.8943 86.9417C65.5152 86.979 67.1352 86.834 68.7237 86.5094C68.4179 83.5358 66.9101 67.2972 70.5268 57.7122C60.499 65.6523 63.694 86.773 63.8943 86.9417V86.9417Z" fill="url(#paint17_linear_0_823)"/>
<path id="Vector_22" d="M47.3713 80.3408L50.134 85.1069H51.684M55.1005 87.2158H58.4536L53.4872 73.8348M74.4919 86.3301H76.6851L78.2985 76.0176M80.1016 83.6202H81.9679L82.8748 79.8241" fill="#A0CB29"/>
<path id="Vector_23" opacity="0.47" d="M66.3092 71.7997C68.1961 71.7997 69.7257 70.3929 69.7257 68.6575C69.7257 66.922 68.1961 65.5152 66.3092 65.5152C64.4224 65.5152 62.8928 66.922 62.8928 68.6575C62.8928 70.3929 64.4224 71.7997 66.3092 71.7997Z" fill="url(#paint18_radial_0_823)"/>
<path id="Vector_24" opacity="0.47" d="M61.3005 71.7997C63.1873 71.7997 64.7169 70.3929 64.7169 68.6575C64.7169 66.922 63.1873 65.5152 61.3005 65.5152C59.4136 65.5152 57.884 66.922 57.884 68.6575C57.884 70.3929 59.4136 71.7997 61.3005 71.7997Z" fill="url(#paint19_radial_0_823)"/>
<path id="Vector_25" d="M61.3004 70.6187C62.3836 70.6187 63.2617 69.7406 63.2617 68.6575C63.2617 67.5743 62.3836 66.6962 61.3004 66.6962C60.2172 66.6962 59.3391 67.5743 59.3391 68.6575C59.3391 69.7406 60.2172 70.6187 61.3004 70.6187Z" fill="white"/>
<path id="Vector_26" d="M66.2145 70.6187C67.2976 70.6187 68.1757 69.7406 68.1757 68.6575C68.1757 67.5743 67.2976 66.6962 66.2145 66.6962C65.1313 66.6962 64.2532 67.5743 64.2532 68.6575C64.2532 69.7406 65.1313 70.6187 66.2145 70.6187Z" fill="white"/>
</g>
</g>
<defs>
<radialGradient id="paint0_radial_0_823" cx="0" cy="0" r="1" gradientUnits="userSpaceOnUse" gradientTransform="translate(39.3784 104.791) scale(6.72741 1.61458)">
<stop stop-color="#323232" stop-opacity="0.92"/>
<stop offset="0.24" stop-color="#272727" stop-opacity="0.64"/>
<stop offset="0.64" stop-color="#0B0B0B" stop-opacity="0.17"/>
<stop offset="0.79" stop-opacity="0"/>
</radialGradient>
<linearGradient id="paint1_linear_0_823" x1="39.0622" y1="77.7047" x2="39.0622" y2="45.7653" gradientUnits="userSpaceOnUse">
<stop stop-color="#3D6A06"/>
<stop offset="0.16" stop-color="#588710"/>
<stop offset="0.33" stop-color="#6D9D18"/>
<stop offset="0.51" stop-color="#7BAE1E"/>
<stop offset="0.72" stop-color="#84B721"/>
<stop offset="1" stop-color="#87BA22"/>
</linearGradient>
<linearGradient id="paint2_linear_0_823" x1="37.6808" y1="84.9593" x2="37.6808" y2="47.3048" gradientUnits="userSpaceOnUse">
<stop stop-color="#BBE882"/>
<stop offset="0.14" stop-color="#BEE988" stop-opacity="0.92"/>
<stop offset="0.34" stop-color="#C8EC9A" stop-opacity="0.8"/>
<stop offset="0.58" stop-color="#D8F2B7" stop-opacity="0.67"/>
<stop offset="0.83" stop-color="#EEF9E0" stop-opacity="0.53"/>
<stop offset="1" stop-color="white" stop-opacity="0.43"/>
</linearGradient>
<linearGradient id="paint3_linear_0_823" x1="38.419" y1="83.0824" x2="38.419" y2="49.4981" gradientUnits="userSpaceOnUse">
<stop stop-color="#48790B"/>
<stop offset="0.82" stop-color="white" stop-opacity="0.43"/>
</linearGradient>
<linearGradient id="paint4_linear_0_823" x1="35.8883" y1="87.8907" x2="35.8883" y2="76.4077" gradientUnits="userSpaceOnUse">
<stop stop-color="#5E7814"/>
<stop offset="0.51" stop-color="#8AA21F"/>
<stop offset="1" stop-color="#B1C628"/>
</linearGradient>
<linearGradient id="paint5_linear_0_823" x1="35.4981" y1="85.9716" x2="35.6773" y2="76.7135" gradientUnits="userSpaceOnUse">
<stop stop-color="#82AF10"/>
<stop offset="0.82" stop-color="white" stop-opacity="0"/>
</linearGradient>
<linearGradient id="paint6_linear_0_823" x1="43.0689" y1="88.2598" x2="43.0689" y2="77.9156" gradientUnits="userSpaceOnUse">
<stop stop-color="#5E7814"/>
<stop offset="0.14" stop-color="#758E1A"/>
<stop offset="0.34" stop-color="#8FA620"/>
<stop offset="0.55" stop-color="#A2B824"/>
<stop offset="0.77" stop-color="#ADC327"/>
<stop offset="1" stop-color="#B1C628"/>
</linearGradient>
<linearGradient id="paint7_linear_0_823" x1="40.5384" y1="89.0401" x2="40.5384" y2="77.3251" gradientUnits="userSpaceOnUse">
<stop stop-color="white"/>
<stop offset="1" stop-color="white" stop-opacity="0"/>
</linearGradient>
<radialGradient id="paint8_radial_0_823" cx="0" cy="0" r="1" gradientUnits="userSpaceOnUse" gradientTransform="translate(91.2835 111.953) scale(1.28685 1.35835)">
<stop stop-color="#323232"/>
<stop offset="0.29" stop-color="#252525" stop-opacity="0.67"/>
<stop offset="0.83" stop-color="#040404" stop-opacity="0.07"/>
<stop offset="0.89" stop-opacity="0"/>
</radialGradient>
<radialGradient id="paint9_radial_0_823" cx="0" cy="0" r="1" gradientUnits="userSpaceOnUse" gradientTransform="translate(89.2353 111.953) scale(1.28685 1.35835)">
<stop stop-color="#323232"/>
<stop offset="0.29" stop-color="#252525" stop-opacity="0.67"/>
<stop offset="0.83" stop-color="#040404" stop-opacity="0.07"/>
<stop offset="0.89" stop-opacity="0"/>
</radialGradient>
<linearGradient id="paint10_linear_0_823" x1="75.7466" y1="64.8087" x2="75.7466" y2="-2.25451" gradientUnits="userSpaceOnUse">
<stop stop-color="#3D6A06"/>
<stop offset="0.16" stop-color="#588710"/>
<stop offset="0.33" stop-color="#6D9D18"/>
<stop offset="0.51" stop-color="#7BAE1E"/>
<stop offset="0.72" stop-color="#84B721"/>
<stop offset="1" stop-color="#87BA22"/>
</linearGradient>
<linearGradient id="paint11_linear_0_823" x1="72.3302" y1="68.9738" x2="72.3302" y2="-2.5181" gradientUnits="userSpaceOnUse">
<stop stop-color="#48790B"/>
<stop offset="0.82" stop-color="white" stop-opacity="0.43"/>
</linearGradient>
<linearGradient id="paint12_linear_0_823" x1="72.5411" y1="64.7982" x2="72.5411" y2="-2.30719" gradientUnits="userSpaceOnUse">
<stop stop-color="#BBE882"/>
<stop offset="0.14" stop-color="#BEE988" stop-opacity="0.92"/>
<stop offset="0.34" stop-color="#C8EC9A" stop-opacity="0.8"/>
<stop offset="0.58" stop-color="#D8F2B7" stop-opacity="0.67"/>
<stop offset="0.83" stop-color="#EEF9E0" stop-opacity="0.53"/>
<stop offset="1" stop-color="white" stop-opacity="0.43"/>
</linearGradient>
<linearGradient id="paint13_linear_0_823" x1="55.3005" y1="83.462" x2="55.3005" y2="54.7809" gradientUnits="userSpaceOnUse">
<stop stop-color="#5E7814"/>
<stop offset="0.51" stop-color="#8AA21F"/>
<stop offset="1" stop-color="#B1C628"/>
</linearGradient>
<linearGradient id="paint14_linear_0_823" x1="54.32" y1="78.6642" x2="54.7629" y2="55.5612" gradientUnits="userSpaceOnUse">
<stop stop-color="#82AF10"/>
<stop offset="0.82" stop-color="white" stop-opacity="0"/>
</linearGradient>
<radialGradient id="paint15_radial_0_823" cx="0" cy="0" r="1" gradientUnits="userSpaceOnUse" gradientTransform="translate(64.0103 100.727) scale(16.808 4.03391)">
<stop stop-color="#323232" stop-opacity="0.92"/>
<stop offset="0.24" stop-color="#272727" stop-opacity="0.64"/>
<stop offset="0.64" stop-color="#0B0B0B" stop-opacity="0.17"/>
<stop offset="0.79" stop-opacity="0"/>
</radialGradient>
<linearGradient id="paint16_linear_0_823" x1="73.2265" y1="84.3794" x2="73.2265" y2="58.5558" gradientUnits="userSpaceOnUse">
<stop stop-color="#5E7814"/>
<stop offset="0.14" stop-color="#758E1A"/>
<stop offset="0.34" stop-color="#8FA620"/>
<stop offset="0.55" stop-color="#A2B824"/>
<stop offset="0.77" stop-color="#ADC327"/>
<stop offset="1" stop-color="#B1C628"/>
</linearGradient>
<linearGradient id="paint17_linear_0_823" x1="66.889" y1="86.3407" x2="66.889" y2="57.069" gradientUnits="userSpaceOnUse">
<stop stop-color="white"/>
<stop offset="1" stop-color="white" stop-opacity="0"/>
</linearGradient>
<radialGradient id="paint18_radial_0_823" cx="0" cy="0" r="1" gradientUnits="userSpaceOnUse" gradientTransform="translate(117.875 98.3654) scale(3.21524 3.39386)">
<stop stop-color="#323232"/>
<stop offset="0.29" stop-color="#252525" stop-opacity="0.67"/>
<stop offset="0.83" stop-color="#040404" stop-opacity="0.07"/>
<stop offset="0.89" stop-opacity="0"/>
</radialGradient>
<radialGradient id="paint19_radial_0_823" cx="0" cy="0" r="1" gradientUnits="userSpaceOnUse" gradientTransform="translate(112.759 98.3654) scale(3.21144 3.38986)">
<stop stop-color="#323232"/>
<stop offset="0.29" stop-color="#252525" stop-opacity="0.67"/>
<stop offset="0.83" stop-color="#040404" stop-opacity="0.07"/>
<stop offset="0.89" stop-opacity="0"/>
</radialGradient>
<clipPath id="clip0_0_823">
<rect width="114" height="114" fill="white"/>
</clipPath>
</defs>
</svg>
