<svg width="114" height="114" viewBox="0 0 114 114" fill="none" xmlns="http://www.w3.org/2000/svg">
<g id="wireframe" clip-path="url(#clip0_0_967)">
<circle id="Oval" cx="57" cy="57" r="57" fill="#EDEDED"/>
<circle id="Oval Copy" cx="57" cy="57" r="48" fill="white"/>
<mask id="mask0_0_967" style="mask-type:luminance" maskUnits="userSpaceOnUse" x="9" y="9" width="96" height="96">
<circle id="Oval Copy_2" cx="57" cy="57" r="48" fill="white"/>
</mask>
<g mask="url(#mask0_0_967)">
</g>
<g id="sitemap" clip-path="url(#clip1_0_967)">
<g id="Group" clip-path="url(#clip2_0_967)">
<path id="Shape" d="M82.3536 56.142H58.6246V50.1642H55.6585V56.142H31.9294C31.1104 56.142 30.4463 56.8113 30.4463 57.6366V65.109H33.4124V59.1311H55.6584V65.109H58.6245V59.1311H80.8705V65.109H83.8366V57.6364C83.8367 56.8111 83.1726 56.142 82.3536 56.142Z" fill="#D7DEED"/>
</g>
<path id="Shape_2" d="M73.3363 51.6585H40.9466C40.0619 51.6585 39.3447 50.9358 39.3447 50.0443V32.3501C39.3447 31.4585 40.0619 30.7358 40.9466 30.7358H73.3363C74.221 30.7358 74.9382 31.4585 74.9382 32.3501V50.0443C74.9382 50.9358 74.221 51.6585 73.3363 51.6585Z" fill="#FF6464"/>
<path id="Shape_3" d="M66.4891 78.5593H47.7943C47.2233 78.5593 46.7603 78.0929 46.7603 77.5173V64.6563C46.7603 64.0807 47.2231 63.6143 47.7943 63.6143H66.4892C67.0604 63.6143 67.5233 64.0807 67.5233 64.6563V77.5173C67.5231 78.0927 67.0603 78.5593 66.4891 78.5593Z" fill="#C3E678"/>
<g id="Group_2" clip-path="url(#clip3_0_967)">
<path id="Shape_4" d="M70.489 42.6915H43.7939C42.9749 42.6915 42.3108 42.0223 42.3108 41.197V41.197C42.3108 40.3717 42.9749 39.7024 43.7939 39.7024H70.4891C71.3082 39.7024 71.9723 40.3717 71.9723 41.197V41.197C71.9721 42.0225 71.308 42.6915 70.489 42.6915Z" fill="#D2555A"/>
<path id="Shape_5" d="M67.5228 36.7137H46.76C45.941 36.7137 45.2769 36.0444 45.2769 35.2191V35.2191C45.2769 34.3938 45.941 33.7245 46.76 33.7245H67.5228C68.3419 33.7245 69.006 34.3938 69.006 35.2191V35.2191C69.006 36.0446 68.3419 36.7137 67.5228 36.7137Z" fill="#D2555A"/>
<path id="Shape_6" d="M61.5908 48.6696H52.6924C51.8733 48.6696 51.2092 48.0004 51.2092 47.175V47.175C51.2092 46.3497 51.8733 45.6805 52.6924 45.6805H61.5908C62.4098 45.6805 63.074 46.3497 63.074 47.175V47.175C63.0738 48.0004 62.4098 48.6696 61.5908 48.6696Z" fill="#D2555A"/>
</g>
<g id="Group_3" clip-path="url(#clip4_0_967)">
<path id="Shape_7" d="M60.1077 75.5702H54.1755C53.3565 75.5702 52.6924 74.901 52.6924 74.0757V74.0757C52.6924 73.2503 53.3565 72.5811 54.1755 72.5811H60.1077C60.9267 72.5811 61.5908 73.2503 61.5908 74.0757V74.0757C61.5908 74.9012 60.9267 75.5702 60.1077 75.5702Z" fill="#A0CD5A"/>
<path id="Shape_8" d="M63.0738 69.5923H51.2095C50.3904 69.5923 49.7263 68.9231 49.7263 68.0978V68.0978C49.7263 67.2725 50.3904 66.6032 51.2095 66.6032H63.074C63.893 66.6032 64.5571 67.2725 64.5571 68.0978V68.0978C64.557 68.9231 63.8929 69.5923 63.0738 69.5923Z" fill="#A0CD5A"/>
</g>
<path id="Shape_9" d="M91.701 78.5593H73.0062C72.435 78.5593 71.9722 78.0929 71.9722 77.5173V64.6563C71.9722 64.0807 72.435 63.6143 73.0062 63.6143H91.7011C92.2723 63.6143 92.7352 64.0807 92.7352 64.6563V77.5173C92.735 78.0927 92.2722 78.5593 91.701 78.5593Z" fill="#AAEBFA"/>
<g id="Group_4" clip-path="url(#clip5_0_967)">
<path id="Shape_10" d="M85.3199 75.5702H79.3877C78.5687 75.5702 77.9045 74.901 77.9045 74.0757V74.0757C77.9045 73.2503 78.5687 72.5811 79.3877 72.5811H85.3199C86.1389 72.5811 86.803 73.2503 86.803 74.0757V74.0757C86.803 74.9012 86.1389 75.5702 85.3199 75.5702Z" fill="#78CDE6"/>
<path id="Shape_11" d="M88.2859 69.5923H76.4214C75.6023 69.5923 74.9382 68.9231 74.9382 68.0978V68.0978C74.9382 67.2725 75.6023 66.6032 76.4214 66.6032H88.2859C89.1049 66.6032 89.7691 67.2725 89.7691 68.0978V68.0978C89.7691 68.9231 89.1049 69.5923 88.2859 69.5923Z" fill="#78CDE6"/>
</g>
<path id="Shape_12" d="M41.2769 78.5593H22.5822C22.0111 78.5593 21.5481 78.0929 21.5481 77.5173V64.6563C21.5481 64.0807 22.0109 63.6143 22.5822 63.6143H41.2771C41.8481 63.6143 42.3111 64.0807 42.3111 64.6563V77.5173C42.311 78.0927 41.8481 78.5593 41.2769 78.5593Z" fill="#FFE182"/>
<g id="Group_5" clip-path="url(#clip6_0_967)">
<path id="Shape_13" d="M34.8956 75.5702H28.9634C28.1443 75.5702 27.4802 74.901 27.4802 74.0757V74.0757C27.4802 73.2503 28.1443 72.5811 28.9634 72.5811H34.8956C35.7146 72.5811 36.3787 73.2503 36.3787 74.0757V74.0757C36.3787 74.9012 35.7146 75.5702 34.8956 75.5702Z" fill="#FFCD64"/>
<path id="Shape_14" d="M37.8617 69.5923H25.9973C25.1783 69.5923 24.5142 68.9231 24.5142 68.0978V68.0978C24.5142 67.2725 25.1783 66.6032 25.9973 66.6032H37.8619C38.6809 66.6032 39.345 67.2725 39.345 68.0978V68.0978C39.3448 68.9231 38.6807 69.5923 37.8617 69.5923Z" fill="#FFCD64"/>
</g>
</g>
</g>
<defs>
<clipPath id="clip0_0_967">
<rect width="114" height="114" fill="white"/>
</clipPath>
<clipPath id="clip1_0_967">
<rect width="72" height="49" fill="white" transform="translate(21 30)"/>
</clipPath>
<clipPath id="clip2_0_967">
<rect width="54" height="16" fill="white" transform="translate(29.9026 49.5)"/>
</clipPath>
<clipPath id="clip3_0_967">
<rect width="30" height="15" fill="white" transform="translate(42.1892 33.713)"/>
</clipPath>
<clipPath id="clip4_0_967">
<rect width="15" height="10" fill="white" transform="translate(49.5815 66.5567)"/>
</clipPath>
<clipPath id="clip5_0_967">
<rect width="15" height="10" fill="white" transform="translate(74.782 66.5567)"/>
</clipPath>
<clipPath id="clip6_0_967">
<rect width="15" height="10" fill="white" transform="translate(24.3809 66.5567)"/>
</clipPath>
</defs>
</svg>
