<svg width="15" height="12" viewBox="0 0 15 12" fill="none" xmlns="http://www.w3.org/2000/svg">
<g clip-path="url(#clip0)">
<path d="M15 5.97785C15 6.19925 14.9104 6.42066 14.7761 6.5535L9.53731 11.7343C9.22388 12.0443 8.68657 12.0443 8.32836 11.7343C8.01493 11.4243 8.01493 10.893 8.32836 10.5387L12.1343 6.7749H0.850746C0.402985 6.7749 0 6.42066 0 5.93357C0 5.49077 0.358209 5.09224 0.850746 5.09224H12.0448L8.32836 1.3284C8.01493 1.01844 8.01493 0.487076 8.32836 0.177113C8.64179 -0.13285 9.1791 -0.13285 9.49254 0.177113L14.7313 5.35792C14.9104 5.57933 15 5.80073 15 5.97785Z" fill="black"/>
</g>
<defs>
<clipPath id="clip0">
<rect width="15" height="12" fill="white"/>
</clipPath>
</defs>
</svg>
