<svg width="15" height="12" viewBox="0 0 15 12" fill="none" xmlns="http://www.w3.org/2000/svg">
<g clip-path="url(#clip0)">
<path d="M0 5.97785C0 6.19925 0.0895519 6.42066 0.22388 6.5535L5.46269 11.7343C5.77612 12.0443 6.31343 12.0443 6.67164 11.7343C6.98507 11.4243 6.98507 10.893 6.67164 10.5387L2.86567 6.7749H14.1493C14.597 6.7749 15 6.42066 15 5.93357C15 5.49077 14.6418 5.09224 14.1493 5.09224H2.95522L6.67164 1.3284C6.98507 1.01844 6.98507 0.487076 6.67164 0.177113C6.35821 -0.13285 5.8209 -0.13285 5.50746 0.177113L0.268656 5.35792C0.089551 5.57933 0 5.80073 0 5.97785Z" fill="#005EB8"/>
</g>
<defs>
<clipPath id="clip0">
<rect width="15" height="12" fill="white" transform="matrix(-1 0 0 1 15 0)"/>
</clipPath>
</defs>
</svg>
