<svg width="48" height="48" viewBox="0 0 48 48" fill="none" xmlns="http://www.w3.org/2000/svg">
<path fill-rule="evenodd" clip-rule="evenodd" d="M47.982 16.419C47.9775 16.3875 47.97 16.359 47.9655 16.329C47.955 16.2705 47.9445 16.212 47.9295 16.1565C47.9205 16.122 47.907 16.089 47.8965 16.056C47.88 16.005 47.8635 15.9555 47.844 15.906C47.8305 15.8715 47.814 15.837 47.7975 15.8055C47.7765 15.7575 47.754 15.7125 47.727 15.669C47.709 15.636 47.688 15.6045 47.6685 15.573C47.6415 15.5295 47.613 15.4875 47.5815 15.447C47.559 15.417 47.535 15.387 47.511 15.3585C47.478 15.3195 47.4435 15.282 47.4075 15.246C47.3805 15.219 47.355 15.1905 47.3265 15.1665C47.2875 15.132 47.2485 15.099 47.2095 15.0675C47.178 15.0435 47.148 15.0195 47.1165 14.997C47.1045 14.9895 47.094 14.979 47.082 14.9715L25.1445 0.3465C24.4515 -0.1155 23.55 -0.1155 22.8555 0.3465L0.9195 14.9715C0.9075 14.979 0.897 14.9895 0.885 14.997C0.852 15.0195 0.822 15.0435 0.792 15.0675C0.7515 15.099 0.7125 15.132 0.675 15.1665C0.6465 15.1905 0.6195 15.219 0.5925 15.246C0.5565 15.282 0.522 15.3195 0.4905 15.3585C0.465 15.387 0.441 15.417 0.4185 15.447C0.3885 15.4875 0.36 15.5295 0.333 15.573C0.312 15.6045 0.2925 15.636 0.273 15.669C0.2475 15.7125 0.225 15.7575 0.2025 15.8055C0.1875 15.837 0.171 15.8715 0.1575 15.906C0.1365 15.9555 0.12 16.005 0.1035 16.056C0.0930004 16.089 0.0809995 16.122 0.0719995 16.1565C0.0569996 16.212 0.0465003 16.2705 0.0360003 16.329C0.0300003 16.359 0.0224998 16.3875 0.0194998 16.419C0.00749978 16.506 0 16.596 0 16.6875V31.3125C0 31.4025 0.00749978 31.4925 0.0194998 31.5825C0.0224998 31.611 0.0300003 31.641 0.0360003 31.671C0.0465003 31.7295 0.0569996 31.7865 0.0719995 31.8435C0.0809995 31.878 0.0930004 31.911 0.1035 31.944C0.12 31.9935 0.1365 32.0445 0.1575 32.0955C0.171 32.1285 0.1875 32.1615 0.2025 32.1945C0.225 32.241 0.2475 32.286 0.273 32.3325C0.2925 32.364 0.312 32.3955 0.333 32.427C0.36 32.4705 0.3885 32.511 0.4185 32.5515C0.441 32.583 0.465 32.613 0.4905 32.6415C0.522 32.679 0.5565 32.718 0.5925 32.7525C0.6195 32.781 0.6465 32.808 0.675 32.8335C0.7125 32.868 0.7515 32.901 0.792 32.9325C0.822 32.9565 0.852 32.9805 0.885 33.003C0.897 33.0105 0.9075 33.021 0.9195 33.0285L22.8555 47.6535C23.202 47.8845 23.601 48 24 48C24.399 48 24.798 47.8845 25.1445 47.6535L47.082 33.0285C47.094 33.021 47.1045 33.0105 47.1165 33.003C47.148 32.9805 47.178 32.9565 47.2095 32.9325C47.2485 32.901 47.2875 32.868 47.3265 32.8335C47.355 32.808 47.3805 32.781 47.4075 32.7525C47.4435 32.718 47.478 32.679 47.511 32.6415C47.535 32.613 47.559 32.583 47.5815 32.5515C47.613 32.511 47.6415 32.4705 47.6685 32.427C47.688 32.3955 47.709 32.364 47.727 32.3325C47.754 32.286 47.7765 32.241 47.7975 32.1945C47.814 32.1615 47.8305 32.1285 47.844 32.0955C47.8635 32.0445 47.88 31.9935 47.8965 31.944C47.907 31.911 47.9205 31.878 47.9295 31.8435C47.9445 31.7865 47.955 31.7295 47.9655 31.671C47.97 31.641 47.9775 31.611 47.982 31.5825C47.994 31.4925 48 31.4025 48 31.3125V16.6875C48 16.596 47.994 16.506 47.982 16.419ZM26.0625 5.9175L42.2235 16.6905L35.0055 21.519L26.0625 15.537V5.9175ZM21.9375 5.9175V15.537L12.996 21.519L5.7765 16.6905L21.9375 5.9175ZM4.125 20.5485L9.2865 24L4.125 27.4515V20.5485ZM21.9375 42.0825L5.7765 31.3095L12.996 26.4825L21.9375 32.463V42.0825ZM24 28.8795L16.7055 24L24 19.1205L31.296 24L24 28.8795ZM26.0625 42.0825V32.463L35.0055 26.4825L42.2235 31.3095L26.0625 42.0825ZM43.875 27.4515L38.715 24L43.875 20.5485V27.4515Z" fill="white"/>
</svg>
