<svg width="1101" height="906" viewBox="0 0 1101 906" fill="none" xmlns="http://www.w3.org/2000/svg">
<path d="M248.611 704.206C247.271 703.301 246.439 700.83 246.994 699.409C247.132 699.057 247.415 697.891 247.624 696.817C247.833 695.743 249.017 693.123 250.256 690.994C251.495 688.864 252.752 686.086 253.049 684.82C253.346 683.554 254.011 681.723 254.527 680.752C255.633 678.671 258.409 670.694 260.283 664.214C261.013 661.688 261.923 658.705 262.305 657.585C262.687 656.465 263.104 655.092 263.233 654.533C263.361 653.975 264.211 652.037 265.122 650.226C266.694 647.101 267.234 645.206 268.009 640.088C268.195 638.859 268.917 636.798 269.614 635.508C270.782 633.344 270.919 632.404 271.38 623.356C271.802 615.075 272.039 613.236 272.906 611.53C273.543 610.275 274.086 607.851 274.339 605.132C274.563 602.724 275.065 599.605 275.455 598.201C275.845 596.797 276.251 594.837 276.358 593.847C276.465 592.856 276.784 590.659 277.068 588.966C277.351 587.272 277.759 583.909 277.973 581.491C278.254 578.325 278.774 576.181 279.835 573.82C280.645 572.018 281.924 568.478 282.676 565.953C283.428 563.428 284.237 561.022 284.474 560.607C284.71 560.191 285.127 558.582 285.4 557.03C285.673 555.478 286.1 553.869 286.348 553.454C286.595 553.039 286.835 552.468 286.88 552.186C287.082 550.92 287.812 549.521 289.025 548.078C289.812 547.141 290.509 545.487 290.768 543.94C291.145 541.689 291.084 541.367 290.289 541.402C289.681 541.432 289.34 541.01 289.263 540.142C289.203 539.428 289.061 537.937 288.955 536.83C288.77 534.901 288.816 534.83 290.056 535.13C290.768 535.302 291.701 535.2 292.129 534.905C293.261 534.124 293.919 529.477 293.067 528.287C292.25 527.146 290.698 527.5 290.634 528.841C290.604 529.454 289.955 529.954 288.753 530.287C287.345 530.678 286.905 531.08 286.86 532.017C286.83 532.688 286.622 533.336 286.403 533.457C286.184 533.578 286.073 532.481 286.157 531.019C286.261 529.2 286.697 527.805 287.533 526.607C288.207 525.643 288.632 524.5 288.477 524.066C287.84 522.271 287.796 521.446 288.34 521.472C288.657 521.492 288.938 521.049 288.965 520.498C288.995 519.947 289.252 519.364 289.545 519.202C289.837 519.04 290.11 518.208 290.151 517.352C290.211 516.155 290.018 515.826 289.325 515.925C288.714 516.015 288.195 516.895 287.71 518.673C286.88 521.712 284.232 525.066 283.081 524.537C282.663 524.345 282.031 524.124 281.676 524.046C281.321 523.966 280.768 523.615 280.446 523.261C279.356 522.061 278.005 522.513 276.477 524.586C275.643 525.718 273.95 527.516 272.715 528.582C271.48 529.647 270.306 531.061 270.105 531.725C269.904 532.389 268.93 534.479 267.94 536.37C266.825 538.499 265.947 541.079 265.634 543.147C265.356 544.983 264.543 547.854 263.827 549.527C263.111 551.2 262.382 553.144 262.206 553.847C262.03 554.55 260.9 556.591 259.695 558.383C258.49 560.174 256.595 563.343 255.484 565.424C253.05 569.984 251.849 572.084 250.157 574.739C249.453 575.844 248.4 577.889 247.816 579.283C244.006 588.374 243.182 590.488 243.145 591.259C243.125 591.735 242.435 593.46 241.617 595.091C240.8 596.722 239.636 599.081 239.033 600.333C237.663 603.173 237.015 604.184 234.702 607.101C233.688 608.379 231.964 611.691 230.871 614.461C229.779 617.231 228.523 620.005 228.08 620.627C227.637 621.248 227.066 622.911 226.809 624.321C225.31 632.577 219.916 638.055 216.959 634.325C215.815 632.882 214.408 629.466 214.465 628.272C214.535 626.785 216.663 623.397 218.967 621.099C220.192 619.878 221.686 617.943 222.288 616.8C222.889 615.657 223.746 614.447 224.193 614.112C224.639 613.776 225.015 613.263 225.029 612.97C225.079 611.965 228.54 605.893 230.088 604.1C231.656 602.283 233.594 597.496 235.104 591.713C235.559 589.97 236.855 586.754 237.983 584.567C239.112 582.381 240.051 580.274 240.069 579.885C240.099 579.258 244.462 570.656 246.655 566.898C247.112 566.114 247.501 565.178 247.518 564.816C247.538 564.455 248.122 563.599 248.821 562.913C249.909 561.847 250.186 560.898 250.745 556.333C251.75 548.126 251.796 547.881 252.561 546.6C252.956 545.939 254.485 543.971 255.96 542.227C257.529 540.37 258.616 538.598 258.582 537.955C258.552 537.35 259.481 535.039 260.653 532.819C262.753 528.838 262.781 528.718 262.685 524.121C262.635 521.485 262.847 518.721 263.185 517.758C263.895 515.734 267.331 511.793 268.946 511.149C270.639 510.473 271.392 509.088 271.811 505.87C272.359 501.673 271.943 501.103 268.565 501.417C263.379 501.898 258.683 504.652 258.557 507.287C258.537 507.723 258.298 508.202 258.028 508.352C257.758 508.501 257.352 509.311 257.124 510.15C256.716 511.659 256.355 511.866 254.595 511.601C253.508 511.437 250.509 513.272 250.465 514.128C250.415 515.118 245.628 524.17 244.092 526.186C242.207 528.658 241.547 531.458 242.558 532.69C243.777 534.174 243.346 536.309 241.308 538.876C240.276 540.176 238.755 542.469 237.928 543.972C237.101 545.475 235.24 547.963 233.794 549.502C232.347 551.041 230.611 553.316 229.935 554.556C229.259 555.797 228.356 557.075 227.928 557.397C227.283 557.882 227.16 557.761 227.212 556.692C227.302 554.862 223.138 552.837 218.87 552.633C216.278 552.509 215.221 552.76 212.381 554.175C208.397 556.159 206.718 558.296 204.648 564.018C203.449 567.333 202.679 568.991 201.21 571.419C201.022 571.73 198.415 574.587 195.417 577.768C192.419 580.95 189.284 584.379 188.45 585.389C186.072 588.273 183.635 591.493 183.621 591.77C183.614 591.909 182.752 593.172 181.704 594.577C180.657 595.983 179.209 598.579 178.488 600.347C177.685 602.315 176.811 603.659 176.234 603.812C175.716 603.95 174.86 604.719 174.333 605.522C173.805 606.325 172.489 607.287 171.408 607.66C169.661 608.264 169.154 608.238 166.842 607.429C163.896 606.398 163.309 605.367 163.492 601.55C163.594 599.426 163.872 598.967 166.668 596.304C168.353 594.698 170.046 593.4 170.428 593.418C170.811 593.438 171.132 593.269 171.143 593.046C171.153 592.823 171.939 592.235 172.887 591.739C175.151 590.555 177.416 588.338 178.76 585.989C179.356 584.947 180.191 583.922 180.615 583.71C181.04 583.498 182.027 582.05 182.808 580.49C183.589 578.931 184.81 577.241 185.521 576.734C186.25 576.216 187.007 575.004 187.256 573.959C187.499 572.939 188.133 571.578 188.665 570.935C190.631 568.561 193.221 563.129 193.695 560.388C194.408 556.268 198.025 549.237 200.838 546.503C202.599 544.791 204.073 542.991 207.971 537.792C209.515 535.731 211.359 533.492 212.069 532.815C212.779 532.138 213.781 530.694 214.298 529.607C214.815 528.52 216.545 526.384 218.144 524.862C219.742 523.339 221.334 521.531 221.681 520.845C222.028 520.158 222.674 519.031 223.118 518.341C224.276 516.539 224.206 515.348 222.756 512.109C221.676 509.698 221.032 508.994 218.722 507.7C217.21 506.853 215.831 505.713 215.658 505.166C215.213 503.758 216.825 500.908 219.538 498.305C221.046 496.858 221.865 495.625 221.908 494.739C221.988 493.076 222.921 491.43 223.765 491.464C224.11 491.474 225.443 490.733 226.728 489.808C228.012 488.884 229.872 487.878 230.861 487.574C232.901 486.945 233.214 485.344 231.262 485.523C230.626 485.583 230.118 485.383 230.132 485.081C230.182 484.124 228.31 484.399 226.431 485.626C225.433 486.278 223.757 487.233 222.707 487.748C220.321 488.917 215.889 493.561 213.728 497.154C211.961 500.094 210.484 501.583 205.65 505.297C203.939 506.612 202.203 508.396 201.792 509.262C201.381 510.126 200.235 511.521 199.246 512.358C195.019 515.941 190.894 519.798 190.026 520.979C189.512 521.679 188.303 522.58 187.339 522.982C186.377 523.384 184.847 524.627 183.942 525.746C183.036 526.865 179.856 530.096 176.875 532.925C171.673 537.863 171.299 538.111 167.619 539.07C165.143 539.715 163.087 540.647 161.815 541.702C160.732 542.601 159.244 543.615 158.509 543.956C157.774 544.297 155.03 546.501 152.412 548.855C146.262 554.382 143.437 556.503 142.804 556.068C142.524 555.876 142.106 555.989 141.876 556.328C141.229 557.27 138.035 553.904 137.744 551.973C137.611 551.088 137.749 549.95 138.051 549.446C138.61 548.512 145.618 543.946 148.428 542.686C149.278 542.305 154.043 538.346 159.019 533.89C167.647 526.162 169.118 525.124 176.967 521.227C179.072 520.182 179.887 519.412 180.667 517.731C182.696 513.358 183.607 512.052 185.377 510.984C186.373 510.383 187.745 509.917 188.426 509.95C189.358 509.99 189.907 509.54 190.637 508.116C191.487 506.458 192.935 504.62 197.439 499.478C199.206 497.461 201.77 493.92 201.791 493.467C201.801 493.24 203.313 492.076 205.149 490.879C206.985 489.683 209.473 487.57 210.678 486.184C212.746 483.803 213.809 482.71 218.71 477.924C219.833 476.828 221.103 475.053 221.533 473.98L222.315 472.03L219.907 469.337C217.798 466.978 217.373 466.715 216.477 467.216C214.896 468.101 213.907 467.835 213.438 466.398C213.145 465.501 212.617 465.065 211.773 465.025C211.093 464.995 209.082 464.422 207.303 463.758C204.421 462.683 203.642 462.593 200.161 462.935C198.012 463.146 194.962 463.557 193.383 463.848C191.597 464.177 187.587 464.203 182.774 463.918C173.895 463.391 171.423 463.807 168.311 466.351C167.207 467.254 165.442 468.305 164.389 468.687C163.336 469.069 161.679 470.014 160.708 470.788C159.395 471.833 158.588 472.111 157.57 471.865C156.817 471.683 154.407 472.003 152.214 472.575C149.229 473.354 147.74 474.075 146.285 475.444C143.47 478.093 140.74 478.763 133.174 478.663C125.644 478.563 120.199 479.346 115.614 481.185C113.812 481.908 112.15 482.49 111.921 482.479C111.691 482.469 110.552 483.04 109.391 483.751C105.669 486.027 100.283 484.853 100.429 481.798C100.499 480.435 101.957 478.328 103.608 477.218C104.662 476.509 106.087 476.309 109.881 476.338C115.258 476.378 116.116 476.121 118.925 473.629C121.355 471.473 124.588 470.179 128.03 469.986C129.527 469.906 131.464 469.561 132.334 469.227C133.204 468.893 135.018 468.512 136.366 468.379C138.136 468.204 139.677 467.535 141.914 465.969C143.617 464.776 145.099 463.592 145.206 463.337C145.313 463.082 145.699 462.888 146.065 462.906C146.43 462.926 147.76 462.114 149.021 461.108C150.282 460.102 152.295 458.816 153.494 458.252C159.994 455.194 160.221 455.141 166.901 455.082C174.238 455.022 176.417 454.344 181.622 450.532C183.235 449.351 184.968 448.254 185.474 448.093C185.98 447.933 186.417 447.316 186.445 446.724C186.495 445.603 183.956 442.682 182.435 442.117C181.954 441.939 181.439 441.333 181.289 440.772C181.14 440.21 180.744 439.719 180.409 439.682C178.913 439.513 177.863 439.102 176.616 438.196C175.408 437.319 166.684 434.174 163.171 433.349C162.248 433.132 161.01 433.419 159.508 434.198C158.261 434.845 155.827 435.703 154.101 436.105C152.374 436.507 150.172 437.246 149.207 437.746C148.242 438.247 146.943 438.634 146.32 438.605C145.697 438.575 144.556 438.846 143.784 439.203C143.012 439.56 141.473 440.097 140.364 440.397C139.255 440.696 137.343 441.676 136.115 442.575C134.887 443.474 131.305 445.35 128.154 446.744C125.004 448.138 121.108 450.064 119.497 451.022C116.666 452.707 116.456 452.749 113.229 452.269C111.392 451.996 107.107 451.545 103.706 451.266C98.5832 450.845 96.9814 450.905 94.3761 451.613C92.6462 452.084 90.5384 452.342 89.6922 452.188C88.8462 452.034 85.8431 451.539 83.0192 451.087C80.1953 450.636 76.1523 449.986 74.0346 449.642C71.9169 449.298 69.2948 448.699 68.2075 448.311C65.84 447.466 62.0669 447.576 57.7788 448.616C53.8837 449.56 52.1228 449.1 50.8745 446.813C49.066 443.499 50.0175 441.258 54.1489 439.096C56.3727 437.932 57.0493 437.84 61.4392 438.108C64.1005 438.27 66.8648 438.658 67.582 438.971C69.1663 439.662 79.0606 439.376 80.7122 438.592C81.3302 438.298 82.9395 438.104 84.2877 438.161C85.6359 438.221 87.9209 437.891 89.3657 437.434C90.8104 436.977 94.9093 436.464 98.4745 436.292C102.04 436.121 105.201 435.804 105.499 435.589C105.797 435.373 107.457 434.749 109.187 434.203C110.917 433.657 113.371 432.588 114.64 431.828C119.582 428.868 120.767 428.535 128.532 427.93C130.766 427.756 133.703 427.183 135.06 426.658C136.417 426.133 139.254 425.456 141.364 425.155C143.475 424.854 145.475 424.417 145.809 424.183C148.161 422.539 160.137 422.808 166.93 424.659C169.302 425.305 170.479 425.361 173.124 424.951C174.92 424.673 176.569 424.289 176.787 424.099C177.005 423.908 177.453 422.376 177.781 420.694C178.11 419.012 178.487 417.292 178.619 416.872C178.821 416.23 178.218 416.106 174.85 416.101C172.348 416.096 170.85 415.897 170.866 415.568C170.876 415.278 171.459 413.748 172.153 412.166C173.222 409.728 173.306 409.211 172.704 408.763C171.899 408.165 167.383 408.369 165.906 409.071C165.369 409.326 162.63 409.623 159.818 409.732C157.006 409.841 154.216 410.162 153.617 410.447C153.019 410.731 151.374 410.908 149.962 410.841C148.212 410.761 146.255 411.165 143.808 412.125L140.22 413.533L135.721 412.673C131.524 411.873 131.036 411.879 128.453 412.754C126.931 413.271 124.326 414.122 122.665 414.643C121.004 415.165 118.404 415.981 116.887 416.458C115.37 416.935 111.892 417.849 109.158 418.489C103.345 419.852 98.8036 421.271 94.1473 423.182C92.3075 423.937 90.4369 424.537 89.9907 424.516C89.5447 424.496 87.7049 425.024 85.903 425.693C83.5962 426.55 81.7099 426.87 79.5289 426.774C74.3713 426.547 72.8069 424.775 74.7086 421.315C76.1967 418.607 78.4446 417.808 83.9207 418.041C87.1893 418.18 88.6212 418.032 89.2131 417.494C89.6591 417.089 90.3318 416.764 90.7074 416.773C93.2283 416.833 94.8928 412.86 93.4543 410.217C92.2479 408.001 92.3878 406.916 94.0782 405.381C95.6615 403.942 95.5194 403.971 99.5479 404.27C103.615 404.572 111.57 402.986 115.45 401.098C117.323 400.187 120.611 399.636 129.65 398.718C131.949 398.485 135.696 399.671 138.576 401.546C139.876 402.391 140.303 402.405 144.568 401.742C147.093 401.349 150.092 400.535 151.231 399.934C153.189 398.9 153.738 398.869 161.296 399.369C165.692 399.66 170.893 400.063 172.853 400.265C176.405 400.631 178.843 400.265 178.887 399.356C178.897 399.093 178.178 398.358 177.284 397.723C176.171 396.932 175.943 396.579 176.562 396.602C177.059 396.622 177.477 396.404 177.491 396.12C177.501 395.836 176.993 395.575 176.355 395.54C175.066 395.47 174.516 395.117 173.533 393.731C172.687 392.54 173.503 391.531 176.065 390.603C177.692 390.013 177.845 389.786 177.781 388.051C177.691 385.477 176.493 384.676 174.4 385.781L172.817 386.616L172.071 384.985C170.282 381.078 174.487 377.993 181.613 377.986C184.624 377.981 185.448 377.395 184.687 375.793C184.037 374.424 184.954 373.069 186.327 373.37C186.795 373.473 187.989 372.938 188.98 372.182C190.495 371.026 191.075 370.875 192.614 371.235C193.621 371.47 194.579 371.826 194.744 372.025C195.242 372.628 194.012 375.7 193.286 375.665C192.914 375.645 192.313 376.208 191.951 376.912C191.415 377.952 191.431 378.253 192.041 378.519C192.45 378.699 193.154 378.511 193.605 378.102C194.76 377.052 197.313 376.72 198.546 377.458C199.924 378.283 201.411 377.538 201.486 375.977C201.526 375.201 202.135 374.456 203.25 373.827C204.413 373.171 204.985 372.451 205.043 371.574C205.113 370.498 205.539 370.173 207.614 369.61C209.411 369.123 210.159 368.637 210.31 367.862C210.489 366.944 210.173 366.72 208.123 366.311C206.617 366.011 205.511 366.03 205.144 366.361C204.371 367.064 202.72 366.923 201.281 366.032C200.209 365.368 200.188 365.257 201.014 364.636C202.324 363.651 203 361.843 203.574 357.79C204.036 354.529 204.197 354.182 205.295 354.08C205.962 354.02 206.879 354.318 207.333 354.746C208.676 356.013 209.938 356.347 210.298 355.53C210.477 355.124 211.291 354.497 212.107 354.138C213.561 353.497 213.593 353.517 213.741 355.109C213.821 356.002 214.049 357.15 214.242 357.658C214.519 358.391 214.182 358.732 212.612 359.301C211.522 359.696 210.233 359.894 209.746 359.742C209.259 359.589 208.535 359.642 208.137 359.865C207.535 360.198 207.538 360.394 208.157 361.032C209.155 362.066 215.357 361.939 215.408 360.883C215.428 360.491 215.739 360.185 216.101 360.202C216.464 360.222 217.421 359.55 218.228 358.713C219.036 357.877 219.928 357.352 220.211 357.546C221.062 358.13 220.671 360.424 219.459 361.964C218.778 362.83 218.426 363.813 218.584 364.408C218.882 365.532 220.794 366.287 222.241 365.852C223.836 365.372 226.673 363.289 226.707 362.571C226.727 362.201 227.376 361.274 228.156 360.511C229.446 359.246 229.558 358.852 229.42 356.077C229.34 354.402 229.142 352.802 228.987 352.521C228.832 352.241 227.807 351.968 226.708 351.915C225.087 351.835 224.461 352.11 223.377 353.366C222.114 354.829 221.978 354.867 220.848 354.079C219.045 352.821 214.142 351.536 213.866 352.249C213.727 352.607 212.96 352.309 211.818 351.451C209.81 349.94 207.928 349.596 207.462 350.655C207.297 351.031 206.323 351.78 205.297 352.321C203.706 353.16 203.394 353.188 203.172 352.514C202.724 351.154 202.969 349.893 203.806 349.264C205.12 348.276 204.784 347.65 203.094 347.937C202.205 348.088 201.539 347.987 201.553 347.708C201.563 347.436 200.857 346.874 199.977 346.459C199.097 346.044 197.347 344.926 196.087 343.975C192.51 341.274 187.494 338.651 185.741 338.564C184.864 338.524 183.245 337.868 182.142 337.114C180.674 336.11 179.392 335.703 177.343 335.593C173.38 335.38 168.069 334.143 166.3 333.022C163.889 331.493 159.972 330.189 156.37 329.717C152.495 329.209 149.776 328.588 148.667 327.956C147.542 327.315 134.616 323.782 131.624 323.298C130.232 323.073 128.853 322.668 128.558 322.398C127.84 321.741 121.475 319.961 119.508 319.866C117.855 319.786 114.566 316.785 114.632 315.416C114.652 315.019 116.004 314.361 117.773 313.888L120.881 313.057L126.889 315.293C130.194 316.523 134.039 318.005 135.434 318.585C138.645 319.92 142.826 320.986 145.323 321.105C146.388 321.155 147.47 321.415 147.728 321.681C148.315 322.286 155.947 324.221 159.714 324.719C163.618 325.235 164.589 325.474 165.845 326.227C167.635 327.298 172.602 329.114 173.986 329.202C174.695 329.252 177.111 329.844 179.354 330.527C181.598 331.21 184.241 331.929 185.228 332.125C186.215 332.32 187.45 332.628 187.974 332.809C188.803 333.096 188.91 332.899 188.8 331.291C188.695 329.756 188.79 329.552 189.367 330.078C189.748 330.426 190.238 331.26 190.457 331.929C190.676 332.599 191.258 333.295 191.751 333.476C192.245 333.657 193.318 334.21 194.136 334.705C194.954 335.2 196.781 335.953 198.195 336.379C199.609 336.805 202.026 337.575 203.567 338.09C207.113 339.276 209.183 339.384 210.649 338.459C211.285 338.057 212.095 337.805 212.449 337.899C212.803 337.989 213.12 337.721 213.153 337.296C213.223 336.362 215.458 336.059 216.205 336.881C216.971 337.725 217.557 337.637 217.604 336.672C217.654 335.609 214.087 331.649 213.033 331.598C212.596 331.578 211.519 332.108 210.642 332.777C209.765 333.446 208.933 333.988 208.794 333.982C208.655 333.975 208.011 332.722 207.363 331.197C206.2 328.461 203.716 325.458 201.031 323.542C197.964 321.352 200.804 321.032 205.632 323.022C207.28 323.702 209.503 324.265 210.572 324.273C212.2 324.283 212.585 324.499 212.94 325.586C213.407 327.019 216.654 329.703 217.997 329.767C218.467 329.787 219.995 330.678 221.391 331.741C222.788 332.804 224.31 333.692 224.772 333.714C225.542 333.754 227.318 335.072 229.649 337.341C230.708 338.372 233.446 338.188 235.841 336.925C237.464 336.069 238.575 336.499 239.478 338.333C240.549 340.511 241.739 342.289 242.137 342.308C242.366 342.318 242.712 341.695 242.906 340.921C243.1 340.147 244.276 338.515 245.52 337.295C246.763 336.075 248.02 334.681 248.312 334.197C248.604 333.713 249.289 333.338 249.833 333.365C251.094 333.425 253.504 332.476 253.531 331.908C253.541 331.67 253.9 331.491 254.326 331.512C256.168 331.602 254.276 326.905 251.025 323.3C248.198 320.17 245.971 316.954 246.013 316.064C246.033 315.718 243.441 312.668 240.26 309.288C237.078 305.907 234.192 302.836 233.846 302.463C228.784 297.007 217.539 284.113 217.555 283.783C217.565 283.543 216.451 282.499 215.076 281.464C213.701 280.429 212.471 279.19 212.342 278.71C212.116 277.867 208.126 273.943 206.901 273.359C206.569 273.201 205.346 272.211 204.183 271.159C203.02 270.108 200.91 268.609 199.493 267.83C197.322 266.636 196.858 266.11 196.538 264.481C196.045 261.977 196.91 260.974 199.434 261.12C201.844 261.259 202.699 261.828 207.09 266.219C211.652 270.779 213.492 272.872 220.296 281.245C223.304 284.947 227.119 289.456 228.774 291.265C230.429 293.075 233.746 296.843 236.145 299.638C238.544 302.434 241.092 305.133 241.807 305.636C243.254 306.655 248.996 312.743 251.83 316.264C253.062 317.794 254.091 318.566 254.952 318.607C256.393 318.677 256.453 318.567 255.795 317.089C255.538 316.512 255.118 315.566 254.861 314.989C254.604 314.411 254.414 313.516 254.439 312.999C254.459 312.483 253.941 311.245 253.277 310.249C252.613 309.253 252.08 308.237 252.092 307.992C252.102 307.747 251.485 306.656 250.718 305.569C249.95 304.482 248.971 302.481 248.542 301.123C248.113 299.764 247.344 298.236 246.833 297.727C246.322 297.218 245.936 296.128 245.975 295.306C246.065 293.467 245.292 291.707 241.857 285.902C238.867 280.849 238.152 279.912 236.599 279.007C236.008 278.663 234.725 277.043 233.748 275.406C232.771 273.77 231.481 272.214 230.88 271.949C230.279 271.684 228.032 270.31 225.886 268.895C223.741 267.48 221.702 266.308 221.355 266.291C220.487 266.251 217.971 264.473 216.49 262.861C214.881 261.11 209.628 257.598 207.838 257.076C207.064 256.85 206.313 256.453 206.169 256.193C206.025 255.933 205.153 255.684 204.232 255.64C202.829 255.57 202.043 254.958 199.399 251.865C195.305 247.074 193.563 244.701 193.598 243.965C193.658 242.68 195.914 240.755 197.279 240.821C199.114 240.911 203.985 243.05 205.222 244.312C205.764 244.865 207.347 245.865 208.737 246.533C210.128 247.201 211.485 248.039 211.752 248.396C212.019 248.753 213.398 250.1 214.815 251.391C216.233 252.681 217.505 254.162 217.643 254.682C217.932 255.771 221.17 257.705 224.32 258.671C225.853 259.141 227.164 260.121 228.815 262.032C230.097 263.517 232.105 265.36 233.277 266.13C234.45 266.899 235.4 267.705 235.39 267.922C235.38 268.139 236.919 270.123 238.811 272.333C240.702 274.542 243.754 278.517 245.591 281.166C247.428 283.815 250.065 287.318 251.451 288.949C252.837 290.581 254.789 292.886 255.788 294.072C256.788 295.259 257.912 296.914 258.286 297.752C258.66 298.59 259.792 300.31 260.802 301.574C261.811 302.838 262.625 304.302 262.609 304.827C262.569 306.256 267.131 312.279 269.53 313.959C270.685 314.769 271.933 315.763 272.303 316.17C273.303 317.271 275.722 318.575 276.111 318.223C276.827 317.573 276.44 316.597 274.502 314.17C273.398 312.788 272.317 310.782 272.1 309.714C271.883 308.645 271.549 307.022 271.359 306.106C271.169 305.191 270.221 303.375 269.253 302.071C268.285 300.768 267.505 299.478 267.518 299.206C267.528 298.934 266.846 297.993 265.996 297.117C263.932 294.988 259.934 288.181 259.603 286.229C259.418 285.141 258.429 283.897 256.339 282.123C254.69 280.723 253.074 278.84 252.746 277.937C252.089 276.127 249.946 273.356 249.173 273.319C248.902 273.309 248.069 272.218 247.324 270.903C246.579 269.587 245.815 268.503 245.627 268.493C244.916 268.453 239.352 260.847 239.394 259.969C239.444 258.996 241.453 257.944 243.115 258.024C243.786 258.054 244.957 259.51 246.743 262.528C248.51 265.514 249.88 267.22 250.893 267.698C252.83 268.611 253.443 269.452 253.596 271.401C253.76 273.507 254.835 275.222 257.496 277.625C258.813 278.813 260.607 281.35 261.914 283.871C263.125 286.206 264.412 288.246 264.776 288.406C265.139 288.566 265.426 288.906 265.414 289.163C265.404 289.42 266.303 291.126 267.416 292.955C269.858 296.966 274.013 301.502 276.835 303.24C278.125 304.035 279.201 305.23 279.691 306.415C280.257 307.782 281.061 308.582 282.553 309.264C284.72 310.254 285.815 310.085 287.224 308.544C287.611 308.12 288.312 307.792 288.781 307.814C289.249 307.834 290.11 307.061 290.695 306.091C291.718 304.392 291.729 304.215 291.004 301.32C290.59 299.666 290.116 297.11 289.951 295.64C289.758 293.916 288.996 291.88 287.806 289.911C286.791 288.23 285.424 285.869 284.77 284.664C282.336 280.184 280.242 277.41 278.653 276.56C277.753 276.079 276.105 274.886 274.991 273.909C270.683 270.132 270.026 269.669 267.331 268.511C263.285 266.772 250.937 256.607 251.011 255.077C251.061 254.063 252.157 253.389 253.216 253.721C253.768 253.894 254.959 255.324 255.863 256.899C257.592 259.911 259.983 261.933 261.93 262.03C262.975 262.08 263.103 261.837 263.211 259.586C263.301 257.781 263.069 256.824 262.389 256.146C261.871 255.63 261.198 254.514 260.893 253.666C260.589 252.818 260.164 252.117 259.949 252.106C259.734 252.096 259.287 251.333 258.956 250.412C258.625 249.49 257.203 247.313 255.795 245.574C254.387 243.835 252.788 241.298 252.242 239.937C249.574 233.284 245.062 226.011 242.645 224.465C241.903 223.99 240.695 222.393 239.961 220.916C238.2 217.371 235.465 213.381 232.995 210.755C230.068 207.643 230.468 204.328 233.891 203.316C236.199 202.634 237.938 203.685 238.668 206.201C238.982 207.282 239.795 208.973 240.474 209.958C241.153 210.943 241.697 211.999 241.682 212.303C241.672 212.607 241.829 212.942 242.042 213.047C242.254 213.152 243.45 214.8 244.698 216.71C248.227 222.11 249.299 223.713 251.361 226.675C252.415 228.189 253.267 229.659 253.253 229.941C253.233 230.403 256.406 234.129 259.028 236.718C259.586 237.269 260.266 238.932 260.539 240.412C261.306 244.573 262.31 246.512 266.474 251.863C269.39 255.611 270.917 257.106 272.741 257.999C275.19 259.199 278.02 262.235 281.711 267.621C283.558 270.318 285.916 273.063 290.775 278.175C293.023 280.539 298.287 283.209 299.189 282.443C300.005 281.751 301.774 282.964 303.182 285.182C303.987 286.449 305.509 287.871 306.832 288.59C308.079 289.268 310.068 290.548 311.25 291.434C313.811 293.353 315.182 293.213 314.752 291.075C314.594 290.288 314.344 288.126 314.196 286.269C313.676 279.734 312.17 273.751 310.001 269.605C309.044 267.777 308.795 266.56 308.923 264.338C309.229 259.045 307.48 253.102 302.627 242.947C301.257 240.082 299.794 236.324 299.375 234.597C298.483 230.92 297.127 226.539 295.962 223.568C295.052 221.249 294.235 217.883 293.803 214.669C293.649 213.524 292.777 210.58 291.867 208.129C290.08 203.315 289.889 201.262 291.142 200.32C292.051 199.636 294.094 200.102 295.114 201.225C295.489 201.638 296.009 203.7 296.27 205.806C296.84 210.421 298.106 214.761 299.422 216.61C300.036 217.473 300.351 218.747 300.283 220.094C300.152 222.694 301.886 229.126 304.294 234.97C305.282 237.369 306.074 239.687 306.053 240.12C306.023 240.837 306.805 242.968 309.933 250.625C311.211 253.755 312.23 258.904 312.383 263.006C312.486 265.756 313.752 270.047 315.759 274.445C316.224 275.463 316.729 277.117 316.881 278.12C317.103 279.58 321.257 290.165 322.593 292.674C322.979 293.4 325.829 297.634 326.785 298.902C329.908 303.046 337.2 294.316 334.487 289.682C333.821 288.545 333.775 287.279 334.137 279.946C334.227 278.081 334.037 275.278 333.712 273.717C333.386 272.157 332.923 269.379 332.681 267.545C332.44 265.711 331.67 262.531 330.969 260.478C330.269 258.426 329.586 255.461 329.452 253.89C329.318 252.318 328.917 250.39 328.561 249.604C328.205 248.818 327.942 247.603 327.975 246.903C328.005 246.203 327.623 244.523 327.119 243.172C325.227 238.101 326.567 236.194 330.457 238.42L332.533 239.608L332.268 243.059C331.838 248.651 332.655 256.055 333.985 258.62C334.773 260.139 335.073 261.485 334.918 262.803C334.792 263.872 334.938 265.274 335.252 265.917C335.562 266.561 335.914 268.208 336.034 269.577C336.155 270.945 336.757 273.37 337.372 274.965C338.406 277.643 338.446 278.257 337.892 283.016C337.344 287.724 337.388 288.466 338.403 291.612C340.56 298.297 342.537 301.657 343.704 300.617C344.571 299.845 345.881 285.397 345.378 282.149C345.128 280.531 344.829 277.108 344.715 274.541C344.383 267.067 343.946 263.938 342.536 258.915C341.408 254.901 341.212 253.073 341.225 246.694C341.234 242.293 340.971 238.325 340.589 237.092C340.231 235.937 339.859 231.845 339.764 227.999C339.664 224.153 339.474 218.672 339.333 215.82C339.106 211.223 339.192 210.434 340.089 208.872C341.327 206.718 342.788 206.482 344.537 208.152L345.851 209.407L345.37 223.094C345.072 231.577 345.083 237.344 345.4 238.262C345.68 239.077 345.823 241.644 345.719 243.969C345.614 246.293 345.739 249.135 345.987 250.285C346.239 251.436 346.46 254.006 346.478 255.997C346.498 257.988 346.682 260.325 346.892 261.19C347.102 262.056 347.49 264.171 347.756 265.892C348.021 267.612 348.513 270.063 348.847 271.339C349.182 272.615 349.391 275.005 349.312 276.649C349.212 278.654 349.483 280.32 350.126 281.711C350.652 282.852 351.219 285.028 351.385 286.548C351.606 288.573 352.044 289.649 353.026 290.579C353.762 291.277 354.548 292.657 354.77 293.646C354.993 294.635 355.509 295.812 355.917 296.261C356.467 296.866 356.511 297.325 356.09 298.03C355.402 299.179 355.704 299.616 356.998 299.344C357.594 299.218 358.091 298.523 358.299 297.522C358.485 296.632 359.111 294.187 359.691 292.089C360.574 288.894 360.656 287.952 360.194 286.288C359.74 284.651 359.781 284.069 360.428 282.988C361.359 281.432 362.406 280.982 363.162 281.813C363.462 282.144 363.655 284.221 363.59 286.429C363.53 288.638 363.69 291.721 363.95 293.282C364.213 294.842 364.271 296.824 364.078 297.686C363.602 299.817 364.138 300.482 366.18 300.277L367.892 300.104L367.655 297.697C367.525 296.373 367.275 294.828 367.1 294.264C366.925 293.699 367.05 292.308 367.375 291.173C367.766 289.81 367.868 286.993 367.673 282.886C367.511 279.463 367.613 270.402 367.909 262.749C368.398 249.912 368.514 248.766 369.417 247.947C370.687 246.793 371.708 246.875 372.938 248.229C373.814 249.193 373.874 249.738 373.437 252.78C373.164 254.68 372.566 256.915 372.107 257.747C370.795 260.13 370.179 266.745 371.039 269.233C371.533 270.664 371.625 272.171 371.334 274.086C370.996 276.311 371.079 277.017 371.753 277.633C372.457 278.277 372.866 278.305 374.263 277.808C375.18 277.481 376.568 277.129 377.346 277.026C378.124 276.923 379.034 276.54 379.366 276.176C380.345 275.105 381.754 268.898 381.548 266.558C381.442 265.353 381.744 263.161 382.231 261.596C382.711 260.054 383.225 257.285 383.375 255.442C383.524 253.6 384.089 248.039 384.63 243.086C385.172 238.132 385.65 233.731 385.693 233.307C385.733 232.882 385.723 229.957 385.673 226.806C385.573 221.449 385.643 220.992 386.729 219.743C388.282 217.952 391.03 217.994 391.758 219.823C392.453 221.567 391.798 226.73 390.58 229.147C389.674 230.94 389.481 232.852 388.862 246.137C388.006 264.523 387.741 270.789 387.603 275.943C387.543 278.172 387.205 280.42 386.838 281.034C386.333 281.878 386.28 283.231 386.608 286.856C386.844 289.453 387.25 291.88 387.51 292.248C388.137 293.135 391.019 293.243 392.257 292.426C393.11 291.863 393.173 291.546 392.729 290.043C391.656 286.415 392.833 282.894 394.825 283.77C395.416 284.03 395.525 284.587 395.254 285.968C394.036 292.179 393.942 293.226 394.528 294.005C394.862 294.449 395.597 294.835 396.162 294.862C397.62 294.932 402.387 292.043 402.424 291.066C402.484 289.6 401.683 288.738 400.637 289.131C398.746 289.843 397.319 289.805 397.355 289.041C397.375 288.614 398.133 288.204 399.163 288.061C400.951 287.814 401.588 287.094 401.678 285.216C401.708 284.652 402.344 283.458 403.099 282.562C403.974 281.522 404.502 280.26 404.559 279.077C404.671 276.744 407.442 269.232 408.876 267.373C409.734 266.26 410.287 266.021 411.57 266.208C413.619 266.507 413.923 268.302 412.267 270.33C411.636 271.103 411.089 272.371 411.052 273.148C411.012 273.925 410.358 275.377 409.593 276.376C408.76 277.463 407.921 279.509 407.502 281.477C407.117 283.284 406.539 285.244 406.218 285.831C404.935 288.177 406.642 290.164 410.097 290.346C411.02 290.396 411.8 290.61 411.831 290.825C412.11 292.753 411.728 296.97 411.249 297.245C410.839 297.48 410.914 297.87 411.491 298.506C412.194 299.28 412.463 299.323 413.185 298.781C413.656 298.426 413.996 297.648 413.94 297.051C413.87 296.282 414.3 295.762 415.424 295.266C416.81 294.654 417.015 294.305 417.051 292.499C417.071 291.361 416.961 289.566 416.792 288.509C416.553 286.978 416.742 286.226 417.712 284.81L418.931 283.034L422.289 285.057C424.136 286.17 425.762 287.283 425.903 287.531C426.044 287.779 427.889 288.132 430.004 288.315C433.314 288.602 434.085 288.497 435.542 287.56C436.473 286.961 438.418 286.305 439.865 286.102C443.861 285.541 447.634 283.598 450.726 280.508C452.261 278.973 455.168 276.171 457.186 274.281L460.856 270.843L459.586 270.098C456.828 268.48 458.632 265.702 463.142 264.622C467.672 263.538 470.645 261.464 473.767 257.211C475.287 255.14 476.99 252.374 477.552 251.063C478.84 248.055 480.155 246.928 481.796 247.425C482.478 247.631 483.134 248.098 483.254 248.463C483.374 248.827 482.49 250.94 481.29 253.158C480.089 255.377 479.081 257.591 479.05 258.08C479.02 258.569 478.429 260 477.74 261.26C476.711 263.142 476.131 263.629 474.484 263.988C472.967 264.319 472.254 264.848 471.546 266.167C471.032 267.124 470.41 267.898 470.164 267.886C469.918 267.876 469.331 268.603 468.859 269.504C467.371 272.35 464.968 276.273 464.196 277.117C463.667 277.696 463.498 278.786 463.609 280.903L463.765 283.876L462.793 282.413C461.836 280.973 461.795 280.962 460.141 281.72C459.217 282.143 456.572 283.046 454.263 283.725C450.578 284.809 449.693 285.325 447.017 287.946L443.97 290.932L444.722 293.691C445.461 296.402 445.512 296.454 447.678 296.718C449.634 296.956 449.844 296.879 449.543 296.031C448.395 292.805 449.214 292.148 450.647 295.145C451.134 296.164 451.769 297.031 452.058 297.07C454.228 297.368 459.12 297.297 461.805 296.93C463.58 296.687 465.383 296.458 465.812 296.421C466.241 296.381 466.946 296.224 467.381 296.064C468.841 295.528 474.325 294.988 476.998 295.116C478.455 295.186 480.92 295.086 482.475 294.891C484.031 294.697 486.45 294.452 487.852 294.347C489.254 294.242 490.788 293.972 491.261 293.747C491.734 293.522 493.049 293.253 494.183 293.149C516.368 291.115 516.011 291.131 516.928 292.141C517.36 292.616 518.131 292.89 518.65 292.752C519.167 292.615 521.218 292.354 523.207 292.172C529.821 291.568 530.978 291.395 531.63 290.914C531.986 290.652 532.456 290.558 532.675 290.706C532.894 290.854 534.941 290.843 537.226 290.686C539.51 290.524 542.662 290.341 544.23 290.279C545.798 290.219 547.839 289.963 548.766 289.716C549.693 289.469 551.938 289.405 553.756 289.574C555.797 289.764 557.359 289.654 557.844 289.292C558.275 288.968 558.743 288.828 558.884 288.983C559.024 289.138 559.823 289.043 560.657 288.763C561.492 288.487 565.659 288.321 569.916 288.393C576.192 288.499 577.845 288.373 578.652 287.706C579.785 286.776 586.118 286.665 588.124 287.54C588.777 287.825 589.44 287.869 589.598 287.64C589.756 287.41 591.813 287.178 594.168 287.124C596.524 287.074 599.734 286.981 601.302 286.925C602.869 286.865 607.527 286.845 611.651 286.875C615.776 286.905 620.782 286.895 622.776 286.845C624.77 286.805 629.775 286.805 633.899 286.865C638.022 286.915 642.33 286.895 643.472 286.825C644.614 286.745 650.599 286.795 656.771 286.94C662.944 287.081 670.465 287.082 673.485 286.94C676.504 286.799 679.159 286.811 679.384 286.96C680.425 287.675 720.063 288.95 730.822 288.615C735.097 288.482 739.637 288.475 740.911 288.605C746.512 289.156 748.95 289.145 758.247 288.535C763.67 288.177 771.578 287.898 775.82 287.914C783.463 287.944 783.529 287.954 783.199 289.007C782.959 289.773 783.07 290.004 783.594 289.831C783.995 289.699 784.311 289.851 784.295 290.172C784.275 290.52 784.747 290.657 785.463 290.513C787.239 290.157 789.415 291.277 789.356 292.516C789.306 293.484 789.641 293.58 793.821 293.808C799.74 294.131 802.717 294.604 803.534 295.351C804.769 296.48 820.109 297.973 830.999 298.024C831.71 298.029 833.096 298.248 834.079 298.514C835.062 298.78 837.777 299.079 840.111 299.177C842.445 299.277 844.448 299.525 844.562 299.73C844.842 300.236 852.256 300.347 855.484 299.894C857.041 299.675 858.806 299.747 859.873 300.073C860.855 300.373 862.662 300.792 863.89 301.004C865.118 301.217 866.33 301.533 866.584 301.707C866.837 301.881 870.577 302.283 874.896 302.601C882.985 303.197 886.6 303.745 886.57 304.372C886.561 304.57 885.819 305.118 884.924 305.591C882.856 306.682 883.206 307.05 886.349 307.09C888.205 307.11 889.149 307.405 890 308.217C891.047 309.218 891.831 309.342 898.943 309.636C903.23 309.813 907.31 309.828 908.009 309.666C911.14 308.951 914.724 310.738 914.869 313.086C914.939 314.245 914.789 314.316 912.818 314.086C910.689 313.838 908.817 314.437 909.471 315.157C909.662 315.367 911.619 315.699 913.818 315.893C920.09 316.447 925.206 317.089 929.382 317.846C931.498 318.229 935.054 318.637 937.284 318.753C941.003 318.946 941.427 318.861 942.415 317.721C943.645 316.304 946.22 316.135 946.866 317.43C947.317 318.335 948.901 318.562 953.287 318.348C955.025 318.268 956.259 318.408 956.245 318.693C956.235 318.962 956.847 319.496 957.611 319.879C958.375 320.262 959.219 320.869 959.486 321.228C960.088 322.037 978.25 325.472 982.608 325.601C983.912 325.641 984.96 325.977 985.338 326.48C985.855 327.168 985.692 327.429 984.307 328.131C983.402 328.59 982.652 329.14 982.64 329.353C982.63 329.566 981.979 329.726 981.197 329.708C979.804 329.678 977.171 330.398 978.182 330.533C978.465 330.573 978.345 330.801 977.916 331.044C976.582 331.801 979.706 332.867 984.365 333.243C989.44 333.653 990.965 334.345 989.967 335.786C988.977 337.213 989.791 337.803 993.88 338.626C997.447 339.343 999.636 340.601 998.077 341.036C997.665 341.151 994.42 341.193 990.867 341.126C984.698 341.016 981.736 341.562 980.755 342.99C980.177 343.833 981.31 344.766 983.369 345.144C985.967 345.62 986.138 345.874 985.086 347.683C984.633 348.463 984.31 349.407 984.366 349.781C984.426 350.156 983.988 350.786 983.4 351.181C982.703 351.65 982.502 352.075 982.824 352.402C983.49 353.081 989.017 354.395 989.935 354.093C990.67 353.85 992.205 355.317 993.555 357.552C993.953 358.211 994.543 358.76 994.865 358.771C995.187 358.781 995.116 358.556 994.706 358.268C994.21 357.92 995.079 357.862 997.301 358.095C999.138 358.287 1001.51 358.507 1002.57 358.584C1003.64 358.664 1004.5 358.956 1004.48 359.24C1004.47 359.556 1002.02 359.639 998.185 359.455L991.911 359.154L989.847 361.125C988.713 362.209 987.368 363.077 986.86 363.055C986.352 363.035 985.639 363.581 985.277 364.272C984.68 365.412 984.727 365.535 985.775 365.586C986.41 365.616 987.088 365.814 987.279 366.025C987.471 366.236 988.608 366.388 989.807 366.364C991.421 366.334 991.831 366.464 991.389 366.876C991.059 367.184 988.059 367.463 984.675 367.5C973.69 367.621 977.726 369.306 991.69 370.429C993.383 370.565 994.544 370.872 994.363 371.136C994.187 371.392 994.307 371.783 994.63 372.005C994.996 372.256 995.089 372.177 994.876 371.794C994.375 370.888 995.94 371.108 996.81 372.066C997.681 373.025 998.342 373.169 997.858 372.295C997.641 371.903 997.739 371.833 998.128 372.1C998.471 372.335 999.194 372.14 999.781 371.662C1000.78 370.842 1000.86 370.858 1001.8 372.046C1002.34 372.728 1002.78 373.126 1002.79 372.931C1002.8 372.736 1003.25 372.841 1003.79 373.165C1004.34 373.489 1007.86 374.014 1011.63 374.331C1024.77 375.439 1042.88 377.637 1044.95 378.377C1045.37 378.526 1046.41 378.866 1047.25 379.133C1048.83 379.635 1050.03 380.456 1050 381.022C1049.98 381.363 1047.28 382.24 1044.34 382.856C1042.25 383.294 1033.47 383.073 1012.32 382.049C1003.45 381.62 996.243 381.326 996.309 381.397C996.774 381.896 1005.33 383.687 1008.61 383.97C1013.16 384.363 1014.1 384.816 1011.21 385.217C1009.77 385.415 985.576 383.922 982.675 383.456C982.507 383.426 980.668 383.353 978.588 383.287C975.183 383.179 974.881 383.247 975.562 384C976.499 385.032 981.355 385.649 994.642 386.426C1006.13 387.097 1005.54 387.013 1005.88 388.039C1006.32 389.372 1004.36 389.616 994.237 389.485C979.185 389.291 977.818 389.505 980.232 391.658C981.12 392.45 981.186 392.776 980.646 393.679C980.055 394.666 980.162 394.807 981.919 395.364C987.734 397.207 992.721 397.878 1007.09 398.746L1011.32 399.002L1014.3 402.196C1016 404.025 1017.25 405.836 1017.22 406.435C1017.16 407.788 1017.44 407.874 1023.85 408.468C1026.83 408.743 1030.7 409.333 1032.45 409.777C1037.97 411.176 1036.36 411.824 1027.31 411.851C1024.04 411.861 1020.89 412.043 1020.31 412.255C1019.73 412.467 1017.82 413.026 1016.08 413.497C1012.44 414.475 1006.84 414.208 986.426 412.085C972.083 410.592 961.856 410.109 961.004 410.883C959.854 411.928 961.438 412.753 965.303 413.123C969.849 413.559 970.374 413.74 969.939 414.73C969.751 415.157 969.396 415.368 969.149 415.199C968.902 415.03 968.683 415.249 968.663 415.68C968.643 416.169 968.336 416.342 967.865 416.134C967.447 415.95 967.093 416.054 967.078 416.371C967.058 416.685 966.586 416.92 966.018 416.893C965.451 416.863 964.973 417.114 964.957 417.446C964.937 417.777 965.088 417.903 965.284 417.725C965.48 417.547 965.884 417.615 966.182 417.877C966.48 418.138 967.198 418.187 967.777 417.985C968.506 417.731 968.593 417.582 968.059 417.501C967.635 417.441 967.979 417.213 968.815 417.006C971.04 416.455 971.512 417.115 969.784 418.361L968.282 419.446L969.49 420.169C970.155 420.567 971.064 421.39 971.51 421.999C972.08 422.776 973.144 423.228 975.08 423.517C976.597 423.743 977.828 424.156 977.815 424.435C977.785 425.099 969.871 425.858 965.6 425.605C960.72 425.317 960.336 425.348 960.701 426.009C961.098 426.725 959.95 427.449 958.51 427.39C957.931 427.37 956.524 427.768 955.383 428.283C954.242 428.797 952.564 429.182 951.653 429.139C947.598 428.944 947.309 430.118 951.093 431.418C952.633 431.947 953.881 432.619 953.867 432.912C953.857 433.205 954.081 433.312 954.373 433.15C954.665 432.988 954.891 433.13 954.875 433.466C954.855 433.91 955.037 433.932 955.547 433.546C956.071 433.152 956.419 433.282 956.926 434.061C957.299 434.634 959.007 435.646 960.723 436.31C962.995 437.189 963.986 437.876 964.369 438.836C964.977 440.361 964.909 440.399 960.996 440.681C949.379 441.52 948.762 441.751 953.195 443.606C955.368 444.515 957.895 445 962.836 445.457C973.047 446.401 977.045 446.882 977.544 447.224C977.794 447.396 977.976 448.009 977.948 448.587C977.918 449.203 978.319 449.769 978.917 449.956C980.313 450.394 980.146 451.43 978.577 452.056C977.298 452.566 956.096 451.439 951.98 450.642C950.993 450.451 949.364 450.443 948.36 450.622L946.533 450.951L948.979 451.454C950.324 451.73 953.051 452.121 955.039 452.321C960.826 452.904 964.424 453.645 965.104 454.393C966.003 455.382 965.945 455.45 963.661 456.084C962.506 456.405 961.695 456.921 961.808 457.265C961.935 457.65 961.288 457.886 960.053 457.904C958.978 457.924 957.626 458.064 957.049 458.224C955.976 458.522 955.515 458.595 954.225 458.671C953.821 458.691 953.656 458.897 953.858 459.12C954.061 459.343 956.52 459.659 959.324 459.821C964.423 460.116 965.984 460.681 965.911 462.201C965.841 463.6 963.006 464.041 954.835 463.922C953.422 463.902 953.73 464.609 955.633 465.755C957.093 466.634 957.283 466.955 956.81 467.744C955.975 469.14 957.715 469.698 964.745 470.292C968.03 470.569 970.874 470.968 971.065 471.177C971.255 471.387 970.945 471.866 970.375 472.241C969.542 472.791 967.951 472.792 962.227 472.247C958.315 471.874 955.107 471.713 955.099 471.888C955.091 472.063 955.427 473.026 955.847 474.028C956.714 476.095 957.282 476.303 964.163 477.067C971.018 477.828 972.386 478.197 972.335 479.272C972.305 479.924 972.858 480.371 974.164 480.747C976.183 481.328 977.064 482.61 975.389 482.529C974.832 482.499 974.087 482.797 973.733 483.185C973.17 483.801 971.646 484.147 967.683 484.56C967.111 484.62 963.827 484.53 960.385 484.366C954.527 484.083 954.105 484.13 953.801 485.099C953.528 485.97 953.056 486.114 950.818 486.007C948.002 485.872 944.028 486.441 942.104 487.255C941.387 487.559 940.014 487.545 938.485 487.215C934.919 486.452 924.979 485.973 922.839 486.46C920.879 486.907 920.363 487.194 918.137 489.082C917.35 489.75 916.42 490.219 916.072 490.125C915.59 489.995 915.549 490.295 915.903 491.378C916.247 492.433 916.197 492.896 915.708 493.167C915.345 493.368 914.903 493.432 914.724 493.31C914.546 493.188 914.083 493.617 913.695 494.265C912.699 495.929 913.576 497.537 915.762 498.057C917.14 498.385 917.425 498.663 917.181 499.44C917.013 499.976 917.131 500.426 917.452 500.442C917.769 500.462 918.009 500.294 917.986 500.08C917.789 498.276 918.136 498.147 922.324 498.464C924.625 498.638 926.762 499.001 927.071 499.269C927.851 499.945 930.444 500.497 930.468 499.991C930.488 499.55 936.626 500.111 937.065 500.593C937.599 501.18 936.743 501.308 932.984 501.204C930.86 501.144 927.769 501.39 926.117 501.749C924.191 502.167 922.422 502.234 921.192 501.935C920.137 501.679 918.111 501.429 916.691 501.38C915.271 501.33 911.919 500.819 909.244 500.244C905.03 499.336 903.22 499.132 900.11 499.216C899.754 499.226 899.447 499.546 899.429 499.928C899.399 500.466 898.321 500.552 894.625 500.307C891.33 500.089 889.077 500.217 887.343 500.727C885.763 501.19 883.069 501.392 880.074 501.272L875.316 501.081L877.878 502.134C879.287 502.713 881.513 503.371 882.824 503.596C885.196 504.003 888.744 505.706 887.251 505.721C886.824 505.725 884.239 505.691 881.506 505.651C878.409 505.601 875.934 505.839 874.936 506.278C873.695 506.825 872.72 506.85 870.591 506.393C869.081 506.069 863.437 505.485 858.05 505.096C852.662 504.707 846.003 504.14 843.253 503.837C837.678 503.222 835.903 503.437 836.312 504.681C836.549 505.399 835.684 505.407 828.738 504.751C824.426 504.345 820.67 503.857 820.392 503.666C820.114 503.475 814.534 503.106 807.992 502.846C801.449 502.585 793.204 501.976 789.671 501.492C786.137 501.008 781.159 500.441 778.608 500.231C776.057 500.022 771.537 499.596 768.565 499.286C751.28 497.484 689.48 494.139 670.261 493.965C662.499 493.895 642.653 493.789 619.83 493.696C615.705 493.676 612.09 493.804 611.797 493.972C611.504 494.141 609.057 494.21 606.357 494.127C603.658 494.047 600.282 494.057 598.854 494.157C597.426 494.259 592.451 494.487 587.797 494.662C581.202 494.91 579.107 495.169 578.299 495.833C577.313 496.643 577.215 496.638 576.303 495.73C575.388 494.818 574.759 494.798 562.485 495.275C545.183 495.948 540.012 496.187 535.103 496.539C532.819 496.703 526.281 497.095 520.575 497.41C495.357 498.801 482.71 499.899 473.967 501.453C471.471 501.897 470.038 503.476 471.328 504.361C471.984 504.811 472.278 504.793 478.874 503.891C482.265 503.427 486.917 503.383 495.696 503.731C505.845 504.133 508.092 504.085 509.421 503.438C511.187 502.578 513.205 502.528 514.327 503.315C515.178 503.913 514.855 504.058 511.698 504.493C508.339 504.956 507.812 505.01 503.12 505.369C498.462 505.725 496.875 506.435 497.371 507.94C497.536 508.439 496.418 508.649 493.029 508.754C486.564 508.954 478.949 509.78 476.485 510.548C475.33 510.908 473.888 511.189 473.28 511.172C472.047 511.142 455.937 514.176 452.231 515.142C450.921 515.483 448.671 516.045 447.232 516.39C440.047 518.112 439.047 518.462 439.28 519.171C439.592 520.119 438.801 520.506 436.217 520.673C435.044 520.753 433.684 520.998 433.194 521.228C432.704 521.457 431.461 521.604 430.432 521.555C425.347 521.311 421.807 523.32 421.652 526.538C421.612 527.286 421.031 528.579 420.353 529.41C419.224 530.793 418.937 530.886 416.984 530.496C414.814 530.063 413.366 530.743 415.22 531.324C416.578 531.75 416.464 532.601 415.009 532.901C413.174 533.279 410.781 535.549 411.07 536.637C411.783 539.325 410.887 542.864 409.509 542.798C408.998 542.778 407.796 539.983 407.688 538.572C407.668 538.286 407.183 538.03 406.616 538.003C405.635 537.953 405.649 538.083 406.88 540.595C407.8 542.471 408.494 543.254 409.273 543.296C410.677 543.376 411.655 544.582 410.882 545.285C409.865 546.209 410.782 548.555 412.471 549.339L414.054 550.075L411.236 551.325C409.686 552.013 408.107 552.56 407.726 552.542C407.345 552.522 406.309 553.062 405.423 553.737C404.097 554.749 403.465 554.895 401.851 554.564C400.517 554.291 399.551 554.391 398.828 554.877C397.843 555.539 397.824 555.664 398.556 556.582C398.99 557.127 399.473 558.075 399.628 558.689C399.854 559.586 399.648 559.86 398.564 560.077C397.824 560.226 397.013 560.206 396.762 560.037C396.511 559.865 395.882 560.454 395.365 561.346C394.474 562.883 394.39 562.915 393.761 561.963C393.396 561.41 393.085 560.594 393.07 560.15C392.98 557.384 392.851 556.769 392.339 556.571C392.024 556.449 391.8 555.655 391.841 554.807C391.881 553.959 391.617 552.936 391.252 552.534C390.887 552.133 390.506 550.329 390.404 548.526C390.216 545.175 388.634 540.707 387.493 540.301C386.354 539.896 386.725 542.049 387.897 542.653C388.957 543.2 388.885 543.272 386.81 543.735C385.587 544.008 384.577 544.442 384.565 544.701C384.555 544.959 383.924 545.777 383.169 546.517C382.185 547.482 381.79 548.387 381.776 549.711C381.766 550.726 381.577 552.247 381.356 553.09C380.894 554.862 381.386 555.945 382.77 556.217C383.386 556.338 383.754 556.865 383.771 557.653C383.781 558.338 383.998 559.84 384.242 560.989C384.486 562.139 384.549 563.462 384.381 563.927C384.213 564.393 384.311 564.935 384.596 565.131C386.078 566.149 381.496 570.429 379.05 570.312C377.492 570.242 376.345 568.904 377.076 568.018C377.358 567.676 377.592 567.047 377.594 566.62C377.6 565.504 375.88 561.364 375.4 561.341C375.177 561.331 374.587 561.884 374.088 562.572C373.54 563.327 372.693 563.798 371.949 563.762C371.207 563.722 370.703 564.006 370.681 564.465C370.661 564.884 370.046 565.58 369.314 566.011C368.502 566.489 367.959 567.281 367.923 568.042C367.823 570.029 366.39 570.061 364.775 568.112C363.159 566.163 363.039 565.31 364.252 564.398C364.934 563.885 365.426 563.905 366.859 564.502C368.231 565.074 368.798 565.109 369.398 564.658C370.063 564.158 370.039 563.871 369.221 562.599C368.311 561.181 368.169 561.136 365.787 561.515C364.42 561.732 362.939 562.194 362.496 562.541C362.052 562.889 361.212 563.227 360.63 563.294C359.494 563.424 356.857 561.453 356.902 560.507C356.942 559.579 355.8 559.797 354.414 560.979C353.144 562.062 353.11 562.064 352.437 561.039C351.207 559.176 352.155 554.395 354.106 552.623C355.363 551.481 355.55 550.709 354.863 549.498C354.192 548.316 351.789 550.576 351.26 552.886C351.029 553.897 350.527 555.058 350.145 555.466C349.047 556.641 347.44 560.158 347.519 561.213C347.559 561.742 347.105 562.651 346.511 563.234C345.218 564.503 344.054 567.92 343.712 571.455C343.256 576.174 342.373 579.654 341.296 580.979C340.281 582.228 340.243 582.645 340.498 589.736C340.749 596.719 340.689 597.419 339.531 601.003C337.675 606.747 336.898 611.498 336.132 621.803C335.9 624.927 335.474 628.907 335.187 630.648C334.9 632.389 334.564 636.094 334.44 638.881C334.317 641.668 333.765 645.653 333.215 647.736C332.452 650.622 332.239 652.827 332.319 657.006C332.379 660.021 332.379 664.814 332.339 667.657C332.279 670.95 332.532 673.685 333.027 675.192C333.454 676.493 333.958 679.245 334.146 681.308C334.477 684.936 334.439 685.128 332.959 687.236C331.111 689.869 329.144 690.742 326.409 690.144C323.937 689.603 323.133 688.642 322.308 685.241C321.596 682.305 321.997 679.619 323.541 676.976C324.77 674.871 325.732 668.848 326.602 657.811C326.993 652.85 327.903 644.628 328.624 639.541C330.13 628.923 330.327 626.162 330.116 618.715C330.014 615.132 330.216 612.287 330.71 610.206C331.121 608.487 331.656 604.413 331.9 601.153C332.144 597.893 332.559 594.188 332.823 592.92C333.229 590.97 333.143 590.428 332.262 589.401C330.708 587.59 329.318 587.816 326.735 590.3C324.206 592.733 323.988 592.805 322.616 591.658C321.306 590.564 321.882 588.274 324.737 583.23C326.002 580.994 327.074 578.648 327.117 578.017C327.157 577.386 327.68 576.079 328.272 575.111C330.65 571.217 331.1 569.989 331.243 566.993C331.364 564.476 331.233 563.871 330.562 563.839C329.934 563.809 329.826 563.488 330.118 562.524C330.374 561.676 330.285 561.221 329.851 561.163C329.492 561.113 328.853 561.008 328.43 560.925C328.007 560.845 327.141 560.708 326.504 560.629C325.636 560.521 325.363 560.162 325.409 559.195C325.449 558.262 325.194 557.891 324.469 557.856C323.918 557.826 323.323 557.548 323.147 557.23C322.917 556.814 322.662 556.802 322.239 557.19C321.047 558.274 320.235 557.717 320.486 555.987C320.683 554.631 320.946 554.335 321.888 554.414C322.763 554.484 323.061 554.222 323.104 553.334C323.194 551.356 322.35 547.063 321.656 546.012C321.022 545.052 320.946 545.055 319.375 546.102C318.481 546.699 317.655 547.183 317.54 547.177C317.275 547.167 318.143 543.622 318.693 542.467C318.92 541.991 319.556 541.482 320.106 541.336C320.709 541.176 321.128 540.598 321.163 539.879C321.193 539.224 321.4 537.969 321.62 537.09C321.969 535.696 321.878 535.486 320.907 535.439C320.295 535.409 319.643 535.728 319.459 536.146C319.275 536.564 318.573 536.88 317.899 536.847C316.382 536.777 316.212 537.348 315.555 544.74C315.253 548.142 314.827 550.456 314.485 550.552C314.151 550.642 313.952 549.986 314.001 548.953L314.081 547.195L311.294 546.988C308.157 546.755 307.96 546.897 306.417 550.523C305.644 552.339 305.134 555.245 304.617 560.784C304.013 567.257 303.684 568.921 302.592 571.036C301.548 573.059 301.273 574.343 301.205 577.503C301.115 581.915 300.275 584.183 298.061 586.037C296.654 587.214 294.349 591.812 294.262 593.613C294.242 594.134 293.66 595.669 292.979 597.024C292.298 598.379 290.713 602.963 289.456 607.21C288.199 611.457 286.765 615.456 286.269 616.097C285.773 616.738 285.349 617.616 285.328 618.05C285.308 618.484 284.528 620.129 283.596 621.706C281.45 625.343 277.803 634.767 277.688 636.97C277.638 637.892 276.936 640.428 276.124 642.605C275.312 644.782 274.614 647.259 274.573 648.109C274.533 648.959 274.128 650.434 273.675 651.387C273.222 652.34 272.342 655.491 271.718 658.39C271 661.729 270.008 664.677 269.011 666.431C268.085 668.06 267.244 670.47 266.97 672.283C266.653 674.381 265.761 676.709 264.179 679.573C262.299 682.977 261.674 684.777 260.911 688.988C260.392 691.851 259.926 694.936 259.876 695.844C259.786 697.53 257.682 701.532 256.005 703.216C253.738 705.492 251.067 705.846 248.624 704.195L248.611 704.206ZM140.969 554.702C140.358 554.075 139.716 553.689 139.545 553.845C139.063 554.283 140.365 555.759 141.272 555.803C141.893 555.833 141.823 555.577 140.969 554.702L140.969 554.702ZM375.188 556.51C375.218 555.832 374.622 554.693 373.82 553.906C373.036 553.137 372.296 552.19 372.177 551.802C372.01 551.261 371.726 551.218 370.962 551.618C369.311 552.483 369.391 554.074 371.177 555.917C373.179 557.982 375.103 558.267 375.187 556.509L375.188 556.51ZM377.619 546.323C377.519 545.962 376.938 545.569 376.327 545.449C375.496 545.286 375.285 545.439 375.488 546.055C375.81 547.031 377.887 547.291 377.619 546.322L377.619 546.323ZM404.069 536.857C404.079 536.573 403.687 536.325 403.19 536.305C402.418 536.275 402.395 536.345 403.037 536.807C403.981 537.483 404.039 537.486 404.069 536.857H404.069ZM249.456 508.224C249.645 507.949 249.436 507.706 248.995 507.685C248.552 507.665 248.179 507.879 248.165 508.163C248.155 508.447 248.359 508.69 248.626 508.702C248.893 508.712 249.266 508.5 249.456 508.224V508.224ZM428.462 513.707C430.904 513.225 433.179 512.504 433.517 512.105C433.856 511.706 434.492 511.537 434.931 511.73C435.37 511.923 437.846 511.58 440.433 510.968C443.021 510.356 445.496 509.873 445.934 509.894C446.371 509.914 448.444 509.469 450.54 508.904C452.637 508.338 455.644 507.635 457.223 507.342C461.623 506.525 462.472 506.167 462.173 505.258C461.69 503.792 457.155 504.302 448.193 506.829C446.463 507.317 441.748 508.526 437.717 509.514C433.686 510.503 429.675 511.604 428.804 511.961C427.933 512.318 426.179 512.858 424.906 513.161C423.632 513.464 422.472 514.016 422.328 514.388C422.15 514.848 422.378 514.988 423.044 514.824C423.582 514.692 426.02 514.189 428.462 513.707L428.462 513.707ZM858.311 500.27C858.172 500.019 856.368 499.725 854.303 499.617C851.38 499.464 850.943 499.527 852.334 499.899C854.877 500.579 858.611 500.811 858.311 500.27ZM908.211 494.663C908.662 494.081 909.037 493.443 909.047 493.244C909.087 492.452 905.333 491.497 903.003 491.705C899.243 492.041 895.1 492.782 895.092 493.12C895.072 494.254 896.302 494.889 899.427 495.35C904.659 496.122 907.238 495.92 908.211 494.663L908.211 494.663ZM200.166 454.768C201.404 454.045 202.503 453.282 202.608 453.074C202.985 452.325 203.833 452.772 205.04 454.355C206.055 455.685 206.655 455.984 208.49 456.073C210.576 456.173 211.365 455.664 211.437 454.17C211.467 453.536 207.506 452.739 203.064 452.486C199.584 452.287 198.892 452.396 198.111 453.272C197.612 453.831 196.774 454.429 196.25 454.602C195.726 454.774 195.43 455.156 195.593 455.451C196.11 456.384 197.843 456.126 200.166 454.769L200.166 454.768ZM220.428 454.308C222.147 452.93 222.416 452.49 221.931 451.845C220.71 450.222 215.335 453.685 216.319 455.46C216.836 456.394 218.354 455.968 220.428 454.308ZM212.925 450.104C213.91 449.76 213.888 449.689 212.576 448.999C211.477 448.421 211.033 448.39 210.518 448.859C210.003 449.327 210.022 449.569 210.608 449.98C211.474 450.588 211.532 450.591 212.926 450.104H212.925ZM216.342 448.99C216.402 447.72 215.854 446.596 215.155 446.563C214.785 446.543 214.54 446.941 214.611 447.442C214.681 447.943 214.744 448.644 214.749 449C214.759 449.901 216.298 449.89 216.341 448.99L216.342 448.99ZM942.933 474.412C942.443 474.258 941.63 474.219 941.127 474.322C940.624 474.428 941.025 474.554 942.019 474.601C943.013 474.651 943.424 474.561 942.934 474.408L942.933 474.412ZM190.687 427.484C191.144 427.333 191.535 426.868 191.555 426.452C191.585 425.912 191.107 425.711 189.907 425.755C186.967 425.861 185.601 427.554 188.349 427.686C189.178 427.726 190.23 427.636 190.687 427.484L190.687 427.484ZM222.329 423.239C222.269 422.117 222.529 421.497 223.205 421.158C224.501 420.507 223.566 419.477 221.981 419.811C220.911 420.037 219.18 422.19 219.124 423.367C219.094 423.926 221.16 425.102 221.893 424.947C222.181 424.887 222.377 424.117 222.329 423.239H222.329ZM185.294 421.389C185.462 421.145 185.264 420.641 184.861 420.27C183.545 419.066 184.152 417.795 187.49 414.763L190.766 411.786L189.99 409.926C189.564 408.904 188.987 408.056 188.708 408.042C187.404 407.982 185.071 410.153 184.399 412.057C183.947 413.339 183.21 414.305 182.455 414.607C180.64 415.331 179.336 419.676 180.538 420.999C181.22 421.749 184.843 422.047 185.294 421.388L185.294 421.389ZM959.597 456.743C959.817 456.243 959.603 456.104 958.856 456.262C958.052 456.431 957.962 456.594 958.473 456.953C959.319 457.548 959.236 457.564 959.597 456.743H959.597ZM176.843 409.598C176.873 408.965 175.443 408.386 175.096 408.892C174.942 409.117 174.957 409.457 175.126 409.647C175.594 410.163 176.814 410.128 176.839 409.597L176.843 409.598ZM193.815 406.987C193.586 405.331 193.392 405.101 192.407 405.316C191.779 405.453 190.973 405.554 190.618 405.541C189.527 405.501 189.818 407.254 191.17 408.86C192.313 410.218 192.544 410.304 193.268 409.647C193.858 409.111 194.008 408.381 193.816 406.988L193.815 406.987ZM181.619 396.32C181.629 396.036 181.295 395.787 180.869 395.767C180.443 395.747 180.083 395.962 180.07 396.246C180.06 396.53 180.394 396.779 180.82 396.799C181.246 396.819 181.605 396.604 181.619 396.32ZM186.658 396.433C186.449 395.69 185.615 395.731 185.318 396.493C185.21 396.772 185.508 397.02 185.981 397.042C186.454 397.062 186.758 396.788 186.657 396.428L186.658 396.433ZM197.802 391.678C198.049 390.672 197.171 389.844 195.773 389.765C194.76 389.705 194.472 391.232 195.32 392.165C196.1 393.024 197.541 392.741 197.802 391.678L197.802 391.678ZM203.153 385.713C203.337 385.295 203.902 384.973 204.409 384.997C205.346 385.037 206.198 383.887 205.662 383.297C205.5 383.119 204.494 382.932 203.425 382.88C201.937 382.81 201.416 382.542 201.204 381.744C201.052 381.17 201.052 380.518 201.205 380.296C201.357 380.074 201.305 379.566 201.081 379.167C200.75 378.569 200.521 378.585 199.78 379.257C199.285 379.706 198.549 380.058 198.143 380.038C197.737 380.018 197.394 380.235 197.381 380.519C197.371 380.803 197.588 381.046 197.872 381.06C198.595 381.09 198.41 383.336 197.625 384.049C197.12 384.508 197.107 384.783 197.565 385.288C198.024 385.793 198.299 385.806 198.804 385.348C199.707 384.528 201.292 384.691 201.604 385.638C201.747 386.072 202.079 386.437 202.341 386.449C202.603 386.459 202.969 386.13 203.152 385.712L203.153 385.713ZM211.494 377.083C212.159 376.706 212.139 376.482 211.359 375.533C209.779 373.608 207.902 374.323 209.068 376.405C209.733 377.593 210.311 377.755 211.494 377.084L211.494 377.083ZM237.797 373.004C238.309 372.539 239.351 372.185 240.112 372.217C242.712 372.328 243.89 371.764 244.961 369.892C245.791 368.441 245.951 367.596 245.684 366.072C245.278 363.759 245.402 363.906 243.471 363.451C242.231 363.159 241.733 363.336 240.881 364.372C240.23 365.164 240.114 365.509 240.579 365.274C241.123 364.999 241.095 365.123 240.479 365.721C239.434 366.733 237.907 366.186 237.972 364.823C238.002 364.286 237.771 363.834 237.468 363.819C236.532 363.779 233.238 366.29 233.533 366.824C233.687 367.101 233.483 368.03 233.076 368.889C232.392 370.339 232.433 370.538 233.663 371.703C234.391 372.392 234.76 373.082 234.482 373.236C234.205 373.39 234.085 373.84 234.216 374.236C234.489 375.065 236.162 374.489 237.797 373.004L237.797 373.004ZM242.355 358.533C243.247 358.756 244.212 358.633 244.822 358.214C246.377 357.15 249.192 357.479 250.55 358.883C251.642 360.013 251.766 360.037 252.274 359.225C252.575 358.743 253.15 358.365 253.551 358.384C254.335 358.424 255.424 356.935 255.481 355.748C255.531 354.643 248.321 350.89 245.923 350.775C244.28 350.695 243.815 350.892 243.475 351.808C243.244 352.43 241.888 353.96 240.46 355.21C238.505 356.921 237.922 357.752 238.096 358.579C238.314 359.611 238.402 359.632 239.609 358.921C240.408 358.45 241.441 358.305 242.355 358.533V358.533ZM220.82 342.74C221.725 341.918 221.759 339.348 220.88 338.377C219.711 337.09 217.402 337.52 216.744 339.148C215.779 341.535 219.015 344.384 220.824 342.74L220.82 342.74ZM258.14 341.538C258.579 341.558 258.788 341.055 258.725 340.136C258.645 339.037 258.218 338.541 256.851 337.984C255.874 337.586 254.588 337.233 253.994 337.2C253.399 337.17 252.224 336.755 251.383 336.283C249.304 335.119 248.171 335.587 248.072 337.652C247.982 339.546 249.659 340.946 251.543 340.549C252.15 340.421 253.258 340.681 254.007 341.126C254.756 341.572 255.838 341.84 256.413 341.724C256.988 341.607 257.765 341.523 258.141 341.537L258.14 341.538ZM1000.75 371.97C1000.77 371.669 1000.54 371.556 1000.25 371.718C999.954 371.88 999.71 372.115 999.704 372.24C999.698 372.365 999.925 372.479 1000.21 372.492C1000.49 372.502 1000.74 372.271 1000.75 371.97V371.97ZM261.893 326.281C261.447 325.737 261.092 324.963 261.105 324.559C261.155 323.074 257.158 319.144 256.348 319.879C255.64 320.523 256.689 323.033 258.41 324.812C260.981 327.47 263.871 328.689 261.893 326.281V326.281ZM319.598 307.618C319.261 305.566 318.839 304.91 314.218 299.259C312.008 296.558 310.83 296.542 311.586 299.229C311.848 300.16 312.472 301.422 312.972 302.033C313.472 302.644 313.874 303.363 313.864 303.628C313.834 304.519 318.123 309.232 319.005 309.274C319.717 309.304 319.826 309.007 319.598 307.621L319.598 307.618ZM309.011 307.369C309.031 306.872 308.423 305.038 307.666 303.294C306.909 301.551 306.308 299.634 306.33 299.034C306.35 298.434 305.834 297.065 305.177 295.99C304.521 294.915 303.661 293.33 303.266 292.468C302.225 290.195 300.251 288.873 298.968 289.591C298.416 289.9 297.612 290.136 297.182 290.115C296.752 290.095 296.396 290.185 296.389 290.311C296.349 291.136 297.726 293.792 299.066 295.478C299.934 296.569 300.759 298.292 300.899 299.306C301.09 300.688 302.007 302.036 304.56 304.687C308.11 308.372 308.957 308.883 309.011 307.368L309.011 307.369ZM330.684 308.797C330.694 308.513 330.477 308.27 330.193 308.256C329.909 308.246 329.666 308.464 329.652 308.748C329.642 309.032 329.859 309.275 330.143 309.289C330.427 309.299 330.67 309.081 330.684 308.798V308.797ZM441.015 295.277C441.133 292.813 440.418 291.649 439.142 292.229C438.678 292.44 437.052 292.843 435.529 293.125C433.159 293.562 432.775 293.796 432.864 294.745C432.944 295.614 433.521 296.001 435.523 296.537C436.927 296.913 438.714 297.275 439.494 297.342C440.825 297.456 440.917 297.332 441.015 295.278V295.277ZM644.146 291.278C645.23 291.248 644.379 290.433 643.157 290.333C642.377 290.273 639.657 289.964 637.111 289.654C632.335 289.073 629.592 289.35 629.164 290.456C628.972 290.952 630.54 291.113 636.338 291.19C640.419 291.24 643.933 291.28 644.147 291.28L644.146 291.278ZM779.63 289.997C779.639 289.808 778.945 289.722 778.087 289.806C776.583 289.953 776.167 290.344 776.786 291.026C777.129 291.403 779.605 290.507 779.63 289.997ZM190.684 619.838C191.048 619.092 192.025 617.583 192.857 616.485C193.688 615.386 194.925 613.041 195.607 611.273C196.909 607.893 198.882 604.713 200.959 602.646C201.641 601.967 202.301 600.971 202.426 600.431C202.551 599.891 202.936 599.371 203.282 599.273C203.97 599.08 203.849 599.497 201.539 605.26C200.812 607.075 199.522 609.375 198.672 610.371C197.822 611.367 197.12 612.333 197.111 612.517C197.102 612.701 196.66 613.275 196.129 613.793C195.598 614.311 194.833 615.72 194.431 616.923C193.543 619.579 192.525 620.835 191.097 621.04C190.116 621.181 190.08 621.08 190.684 619.838V619.838ZM204.587 596.87C204.607 596.444 204.87 596.107 205.171 596.122C205.472 596.132 205.565 595.872 205.378 595.535C205.167 595.154 205.258 595.072 205.618 595.319C206.032 595.603 206.031 595.996 205.614 596.692C204.915 597.86 204.537 597.926 204.588 596.87L204.587 596.87ZM220.529 566.559C220.569 565.73 221.803 564.326 222.463 564.358C223.279 564.398 223.376 564.882 222.821 566.143C222.499 566.875 220.496 567.239 220.528 566.559L220.529 566.559ZM434.087 539.046C432.439 537.77 432.773 537.201 435.106 537.313C437.312 537.419 438.421 538.71 436.999 539.518C435.942 540.119 435.347 540.022 434.087 539.046V539.046ZM595.576 503.398C595.091 502.753 595.235 502.375 596.356 501.357C597.601 500.226 598.124 500.127 601.884 500.307C605.641 500.487 606.032 500.601 605.989 501.502C605.919 502.976 604.46 504.048 602.599 503.994C601.696 503.964 599.88 504.001 598.564 504.064C596.859 504.154 596 503.958 595.576 503.394L595.576 503.398ZM165.652 395.63C164.973 395.398 164.326 394.884 164.214 394.486C164.051 393.906 164.594 393.853 166.979 394.215C169.846 394.651 172.179 395.859 169.979 395.769C169.425 395.749 168.503 395.799 167.929 395.889C167.356 395.979 166.331 395.859 165.652 395.629V395.63ZM161.941 393.999C162.303 393.873 162.883 393.899 163.231 394.059C163.579 394.219 163.281 394.322 162.573 394.288C161.863 394.258 161.579 394.123 161.94 393.997L161.941 393.999ZM240.299 335.42C239.992 334.488 240.817 333.052 241.334 333.62C241.526 333.832 241.434 334.504 241.124 335.114C240.678 335.998 240.511 336.06 240.3 335.421L240.299 335.42ZM993.361 367.195C993.54 367.032 993.986 367.035 994.352 367.202C994.756 367.387 994.627 367.503 994.025 367.499C993.48 367.494 993.181 367.359 993.36 367.195H993.361ZM203.609 286.313C203.334 285.479 204.439 284.112 205.352 284.156C206.18 284.196 207.861 286.254 207.404 286.669C206.711 287.299 203.845 287.03 203.609 286.314V286.313ZM955.067 315.934C953.941 315.67 951.281 315.329 949.154 315.175C944.86 314.865 944.447 314.729 944.873 313.76C945.097 313.251 946.299 313.193 949.878 313.52C952.469 313.757 954.825 314.132 955.115 314.355C955.404 314.577 956.483 314.794 957.511 314.838C958.714 314.888 959.29 315.125 959.125 315.5C958.756 316.34 957.41 316.484 955.067 315.935V315.934ZM961 316.286C959.594 315.76 959.629 315.72 961.685 315.483C962.726 315.363 963.105 315.533 963.078 316.11C963.038 316.976 962.879 316.989 961 316.287L961 316.286ZM940.788 313.419C940.209 312.782 940.472 312.274 941.527 311.994C942.641 311.698 944.62 312.639 944.581 313.447C944.551 314.005 941.299 313.981 940.788 313.417L940.788 313.419ZM358.557 234.867C358.228 234.43 357.865 232.724 357.751 231.076C357.636 229.429 357.362 227.754 357.14 227.354C356.919 226.954 356.774 224.154 356.818 221.131C356.858 218.108 356.639 214.398 356.322 212.887C355.851 210.64 355.875 209.982 356.454 209.272C356.994 208.611 357.3 208.554 357.743 209.034C358.349 209.691 359.643 216.633 360.159 221.999C360.324 223.715 360.821 226.183 361.264 227.485C362.374 230.748 362.203 234.151 360.884 235.021C359.597 235.87 359.296 235.85 358.556 234.866L358.557 234.867Z" fill="white"/>
</svg>
