<svg width="375" height="375" viewBox="0 0 375 375" fill="none" xmlns="http://www.w3.org/2000/svg">
<path d="M44.8164 61.5528C45.4453 60.1153 46.1758 58.9903 47.1172 57.9746C47.7891 57.2715 48.4492 56.502 48.7969 55.4981C48.6719 55.0762 48.4922 54.5918 48.3438 54.0645C46.8633 53.0332 45.625 51.5801 43.9766 50.6582C43.3867 50.3379 42.9102 49.8418 42.4609 49.3028C41.6719 48.3887 40.6523 47.7832 39.5156 47.3496C39.4375 47.3301 39.3398 47.3887 39.2656 47.4043C38.6836 47.8223 38.457 48.5059 38.1406 49.1309C38.0547 49.2598 38.1016 49.4746 38.082 49.7403C38.3477 49.9434 38.6602 50.1778 38.9961 50.3653C39.3945 50.6543 39.8828 50.8496 40.1836 51.2364C41.1406 52.4121 42.4414 53.1075 43.5938 53.9825C44.0859 54.3653 44.4766 54.8028 44.8945 55.2012C44.9961 55.3262 44.9688 55.5567 45.0234 55.8067C44.1523 56.8106 43.3867 57.9395 42.6602 59.0996C42.0742 60.0411 41.4766 60.9121 40.6172 61.6153C40.457 61.7246 40.3516 61.9317 40.2305 62.0684C39.9492 62.502 39.8594 62.9668 40.1133 63.4707C40.5547 63.9746 41.125 64.377 41.8711 64.5567C42.8906 63.5567 43.8945 62.4903 44.8164 61.5528Z" fill="white"/>
<path d="M293.895 143.955C293.372 141.947 293.009 140.439 292.802 139.439C292.747 139.107 292.638 138.759 292.474 138.392C292.087 137.58 291.356 136.716 290.286 135.798C290.142 135.673 289.876 135.607 289.489 135.595C289.095 135.587 288.81 135.576 288.63 135.564C288.224 135.513 287.97 135.376 287.864 135.158C287.782 134.97 287.829 134.712 288.005 134.376C288.497 133.501 288.735 132.673 288.724 131.892C288.704 131.111 288.505 130.314 288.13 129.501C287.923 129.056 287.685 128.626 287.411 128.22C287.153 127.794 286.669 127.072 285.958 126.048C285.063 124.892 284.427 123.919 284.052 123.126C282.927 120.689 283.599 118.603 286.067 116.861C286.329 116.685 286.52 116.572 286.645 116.517C287.263 116.228 287.97 116.185 288.77 116.392C289.052 116.478 289.235 116.607 289.317 116.783C289.392 116.939 289.392 117.111 289.317 117.298C289.247 117.478 289.106 117.634 288.895 117.767C288.013 118.423 287.423 119.134 287.13 119.892C286.829 120.654 286.864 121.431 287.239 122.22C287.294 122.337 287.395 122.517 287.552 122.767C288.157 123.642 288.61 124.283 288.911 124.689C289.778 125.845 290.454 126.841 290.942 127.673C291.38 128.423 291.685 128.998 291.864 129.392C292.384 130.517 292.497 131.58 292.208 132.58C292.153 132.81 292.185 133.056 292.302 133.314C292.364 133.451 292.442 133.556 292.536 133.626C293.911 134.513 294.942 135.701 295.63 137.189C296.106 138.22 296.462 139.392 296.692 140.705C296.849 141.423 297.036 142.017 297.255 142.486C297.661 143.361 298.274 144.201 299.099 145.001C299.192 145.107 299.384 145.201 299.677 145.283C299.966 145.357 300.161 145.419 300.255 145.47C300.317 145.513 300.466 145.595 300.708 145.72C300.958 145.845 301.071 145.97 301.052 146.095C301.009 146.271 300.903 146.474 300.739 146.705C300.571 146.931 300.427 147.068 300.302 147.111C300.145 147.13 299.852 147.165 299.427 147.22C298.997 147.271 298.618 147.298 298.286 147.298C297.95 147.298 297.685 147.244 297.489 147.142C295.946 146.4 294.942 145.529 294.474 144.517C294.411 144.384 294.325 144.142 294.224 143.798L293.895 143.955Z" fill="white"/>
<path d="M116.531 234.005C116.386 234.607 116.261 235.146 116.652 235.607C116.941 235.943 117.347 236.072 117.82 236.052C119.062 235.474 119.062 235.474 120.242 234.013C120.441 233.322 120.625 232.529 121.14 231.916C121.597 231.388 121.511 230.763 121.386 230.166C121.828 229.701 122.003 229.107 122.144 228.505C122.316 227.775 122.777 227.248 123.386 226.791C124.378 226.556 125.371 226.185 126.437 226.205C127.007 226.205 127.468 225.947 127.851 225.599C127.976 225.498 128.054 225.314 128.16 225.138C127.796 224.552 127.433 223.962 127.101 223.384C126.777 223.341 126.511 223.341 126.218 223.306C125.71 222.751 124.75 222.728 124.449 221.583C124.386 221.134 124.324 220.416 124.273 219.771C124.367 218.955 124.625 218.146 124.542 217.357C124.484 216.474 124.75 215.63 124.691 214.748C124.273 212.974 124.273 212.974 123.386 211.626C122.906 211.248 122.558 210.732 121.886 210.603C121.738 210.669 121.585 210.736 121.46 210.841C121.207 211.08 120.949 211.322 120.714 211.599C120.511 211.888 120.46 212.244 120.609 212.611C120.714 212.736 120.808 212.896 120.921 212.986C121.738 213.65 122.183 214.455 122.031 215.525C122.199 216.236 122.105 216.916 121.972 217.619C121.828 218.22 121.648 218.849 121.742 219.439C121.808 220.158 121.675 220.861 121.722 221.509C122.019 222.384 122.296 223.185 122.582 223.955C121.746 225.095 120.496 225.705 119.82 227.017C119.429 228.533 118.984 230.134 118.621 231.521C118.226 232.197 117.988 232.642 117.609 233.255C117.203 233.564 116.82 233.775 116.531 234.005Z" fill="white"/>
<path d="M30.8996 175.579C31.5441 175.696 32.0715 175.458 32.4309 174.892C32.5285 174.763 32.591 174.626 32.6184 174.481C32.716 173.942 32.5793 173.474 32.1652 173.103C31.8644 172.716 31.591 172.403 31.298 172.165L31.1691 172.067C31.0168 171.892 30.8605 171.716 30.7043 171.575C30.4894 171.314 30.2433 171.048 29.9894 170.814C29.923 170.767 29.8371 170.638 29.7473 170.513C29.6613 170.384 29.5285 170.286 29.3683 170.146C29.3176 170.024 29.259 169.939 29.1926 169.892C29.0402 169.716 28.9894 169.595 28.9699 169.481C28.9777 169.446 28.9777 169.446 28.9426 169.439C29.8332 168.821 30.384 168.442 30.548 168.36C30.6769 168.271 30.8371 168.189 30.9777 168.028C31.2824 167.79 31.7004 167.532 32.1535 167.282L33.009 166.657L33.841 165.958C34.0793 165.669 34.2394 165.399 34.2902 165.114C34.3371 164.86 34.3098 164.599 34.2043 164.356C34.0402 163.845 33.7199 163.564 33.1809 163.466L33.0754 163.446C32.6105 163.36 32.1691 163.54 31.7238 163.942C31.6379 164.001 31.5558 164.06 31.5012 164.157C31.4074 164.255 31.3644 164.282 31.3293 164.274C31.2863 164.306 30.3527 164.95 28.4465 166.271L27.5754 166.778C27.0715 167.095 26.6652 167.501 26.3879 168.009C26.2316 168.239 26.1027 168.548 26.0285 168.942C25.9504 169.376 25.9816 169.825 26.1613 170.267C26.2121 170.384 26.259 170.544 26.3449 170.669C26.3996 170.79 26.4777 170.954 26.5598 171.118C26.6418 171.278 26.7238 171.442 26.8488 171.575C26.9348 171.704 27.0519 171.872 27.1418 172.001L28.0598 173.06C28.2629 173.169 28.6027 173.528 29.0949 174.099L29.6613 174.646C29.7238 174.696 29.8488 174.829 30.0246 175.083C30.3137 175.321 30.5832 175.481 30.8996 175.579Z" fill="white"/>
<path d="M33.694 180.794C34.5182 180.942 35.1745 180.395 35.6237 179.145L35.9713 178.466C36.2057 177.989 36.3307 177.716 36.3346 177.681C36.3424 177.645 36.4049 177.509 36.5104 177.341C36.612 177.173 36.7916 176.798 37.0416 176.251L37.6666 175.067C37.8463 174.692 38.0026 174.427 38.0963 174.333L38.651 173.321L39.4362 171.868C39.6159 171.493 39.7331 171.255 39.7877 171.157C39.8424 171.056 39.8971 170.954 39.9674 170.782C40.0338 170.606 40.0924 170.505 40.1041 170.435C40.2643 170.169 40.3815 169.931 40.4518 169.755C40.6159 169.454 40.8581 168.942 41.1666 168.255C41.3971 167.817 41.5143 167.579 41.526 167.505L41.8854 166.759C41.944 166.657 41.9909 166.591 42.0416 166.524C42.0534 166.454 42.0651 166.384 42.1081 166.352C42.1159 166.317 42.1276 166.243 42.1706 166.216C42.1784 166.181 42.1823 166.145 42.2252 166.114C42.2331 166.079 42.2409 166.044 42.2448 166.009L42.8971 164.681C43.0612 164.376 43.1745 164.173 43.2291 164.075C43.2838 163.974 43.3034 163.864 43.3659 163.727L43.4166 163.661C43.5182 163.497 43.6354 163.259 43.737 162.907C43.7877 162.841 43.8424 162.739 43.8971 162.638C43.9518 162.536 43.9674 162.466 43.9752 162.431C43.9791 162.395 43.9948 162.321 44.0338 162.294C44.0416 162.259 44.0495 162.22 44.1041 162.122L44.2799 161.56C44.3971 160.915 44.2331 160.403 43.8112 160.063C43.5885 159.876 43.3854 159.767 43.1315 159.72C42.8815 159.673 42.6549 159.704 42.3776 159.802C41.8659 159.97 41.5299 160.392 41.4088 161.036L41.4284 160.927C41.4088 161.036 41.3893 161.142 41.3502 161.173C41.2995 161.239 41.2916 161.274 41.2916 161.274C41.2877 161.31 41.1627 161.583 40.8737 162.161C40.8581 162.231 40.8034 162.333 40.7487 162.435C40.694 162.536 40.6354 162.638 40.5807 162.739C40.526 162.841 40.4518 163.048 40.2916 163.313C40.069 163.72 39.8346 164.196 39.5768 164.778C39.1393 165.774 38.901 166.251 38.8971 166.286C38.8893 166.321 38.7643 166.595 38.5377 167.036C38.4049 167.345 38.2956 167.548 38.2331 167.685C38.1666 167.856 38.0651 167.989 37.9987 168.161C37.8737 168.435 37.7018 168.774 37.487 169.142C37.4713 169.212 37.4166 169.313 37.3502 169.489C37.2799 169.661 37.2252 169.763 37.1745 169.825C37.1198 169.927 37.0573 170.063 36.9518 170.231L36.8151 170.575L36.0885 171.927C36.0338 172.028 35.9752 172.13 35.9206 172.231C35.8581 172.368 35.7135 172.563 35.5456 172.864C35.3815 173.169 35.2604 173.407 35.2018 173.544C34.9635 174.02 34.737 174.458 34.4791 174.856L34.069 175.673C34.0651 175.708 34.0143 175.774 33.9596 175.876C33.8073 176.106 33.737 176.278 33.7174 176.388C33.6979 176.493 33.5807 176.731 33.3502 177.173C32.8463 178.118 32.5768 178.774 32.5182 179.095C32.4206 179.634 32.5651 180.067 32.9049 180.427C33.1745 180.587 33.4479 180.712 33.694 180.794Z" fill="white"/>
<path d="M47.5276 173.01L47.5042 172.932C47.5393 172.94 47.5315 172.975 47.5276 173.01ZM43.4768 177.944C43.9846 177.998 44.4885 177.87 44.9573 177.549C45.2346 177.452 45.719 177.241 46.4104 176.885C47.1018 176.569 47.5042 176.381 47.6682 176.299C48.4885 175.858 49.0823 175.448 49.4065 175.096C49.9417 174.6 50.262 174.069 50.3674 173.495C50.5159 172.666 50.3792 172.014 49.9963 171.459C49.8753 171.104 49.5471 170.674 49.0588 170.104C48.2073 168.873 47.7307 168.229 47.6448 168.104L47.5862 168.018C47.4729 167.815 47.387 167.686 47.3518 167.678C47.2463 167.44 47.1565 167.311 47.094 167.26C47.0706 167.182 47.0471 167.104 47.0159 167.061C46.9885 167.022 46.9573 166.979 46.9299 166.936C46.8987 166.893 46.8635 166.885 46.8713 166.85C46.8401 166.807 46.8401 166.807 46.8479 166.772C46.8206 166.729 46.8206 166.729 46.7815 166.725C46.5745 166.241 46.219 165.952 45.7542 165.87L45.6448 165.85C45.1799 165.764 44.7463 165.909 44.3362 166.315C44.1917 166.51 44.0784 166.713 44.0315 166.963C43.9807 167.248 44.0315 167.592 44.1487 167.948C44.2151 167.998 44.3245 168.202 44.4534 168.522C44.5393 168.651 44.6292 168.776 44.6799 168.897C44.719 168.905 44.7385 168.983 44.8284 169.108C44.8206 169.147 44.8557 169.151 44.887 169.194C44.9143 169.237 44.9456 169.28 45.0042 169.366C45.0276 169.444 45.1213 169.534 45.2151 169.623C45.3049 169.752 45.387 169.916 45.5237 170.163C45.6253 170.217 46.0003 170.807 46.7346 171.866C46.762 171.909 46.8206 171.995 46.9182 172.084C46.9768 172.17 47.0628 172.299 47.1448 172.459C47.1799 172.467 47.2463 172.518 47.3401 172.608C47.4299 172.733 47.4534 172.815 47.469 172.928L47.4612 172.963C47.426 172.955 47.426 172.955 47.4182 172.991C47.3753 173.022 47.3284 173.088 47.2854 173.116C47.2424 173.147 47.0745 173.264 46.8167 173.44L45.1096 174.276L43.1643 175.182C42.676 175.424 42.387 175.78 42.301 176.248C42.2698 176.428 42.301 176.655 42.3792 176.854C42.4456 177.088 42.5549 177.295 42.7385 177.514C42.9221 177.733 43.1526 177.885 43.4768 177.944Z" fill="white"/>
<path d="M184.771 31.3306C184.845 31.5767 185.029 31.8462 185.185 32.1548C185.775 32.1821 186.217 32.7095 186.924 32.5024C187.674 32.0649 188.201 31.3657 188.529 30.5454C188.779 29.9595 188.732 29.3774 188.299 28.8853C187.9 28.4243 187.443 28.0454 186.83 27.8735C186.541 27.9165 186.252 27.9556 185.998 27.9907C184.713 28.7993 184.353 29.9165 184.771 31.3306Z" fill="white"/>
<path d="M191.81 30.3447C191.885 30.5908 192.068 30.8604 192.224 31.1689C192.814 31.1963 193.256 31.7236 193.963 31.5166C194.713 31.0791 195.24 30.3799 195.568 29.5596C195.818 28.9736 195.771 28.3916 195.338 27.8994C194.939 27.4385 194.482 27.0596 193.869 26.8877C193.58 26.9307 193.291 26.9697 193.037 27.0049C191.752 27.8135 191.392 28.9307 191.81 30.3447Z" fill="white"/>
<path d="M198.849 29.3589C198.924 29.605 199.107 29.8745 199.263 30.1831C199.853 30.2104 200.295 30.7378 201.002 30.5308C201.752 30.0933 202.279 29.394 202.607 28.5737C202.857 27.9878 202.81 27.4058 202.377 26.9136C201.978 26.4526 201.521 26.0737 200.908 25.9019C200.619 25.9448 200.33 25.9839 200.076 26.019C198.791 26.8276 198.431 27.9448 198.849 29.3589Z" fill="white"/>
<path d="M139.036 115.73C139.427 114.288 139.809 112.882 140.274 111.456C140.892 109.472 141.427 107.503 141.903 105.476C142.567 102.483 143.442 99.5459 144.317 96.6123C144.388 96.3662 144.638 96.1319 144.821 95.878C145.501 96.0264 146.169 96.2061 146.864 96.2842C147.517 96.3858 148.243 96.3584 148.907 96.4248C149.567 96.4912 150.224 96.8584 151.063 96.4092C151.22 95.6944 151.802 94.9444 151.325 94.0615C150.513 93.5733 149.61 93.5537 148.724 93.3506C147.524 93.5928 146.419 93.0615 145.231 92.8545C144.474 92.7217 143.747 92.335 142.841 92.4678C142.442 92.8115 141.927 93.0498 141.579 93.6358C141.567 94.085 141.63 94.5537 141.575 95.0303C141.493 95.6123 141.329 96.21 141.177 96.7764C140.446 99.4483 139.72 102.124 139.001 104.761C138.454 106.769 137.907 108.772 137.36 110.776C136.845 112.679 136.29 114.569 135.763 116.503C135.669 116.855 135.528 117.233 135.669 117.687C136.005 117.702 136.376 117.726 136.712 117.745C136.931 117.765 137.087 117.886 137.145 118.089C137.184 118.362 137.212 118.675 137.235 118.87C137.704 119.226 138.114 119.522 138.235 119.632C140.056 120.581 141.798 120.3 143.423 120.706C143.599 120.753 143.794 120.733 143.981 120.745C144.095 120.737 144.184 120.687 144.196 120.651C144.302 119.851 144.395 119.081 144.474 118.233C144.282 118.105 144.052 117.855 143.802 117.788C143.251 117.597 142.677 117.48 142.079 117.315C141.622 117.19 141.11 117.128 140.673 116.933C140.13 116.71 139.505 116.917 138.954 116.577C138.985 116.323 138.958 116.011 139.036 115.73Z" fill="white"/>
<path d="M321.215 52.1993C321.223 52.3126 321.363 52.3516 321.414 52.4415C321.949 52.6993 322.496 52.9181 323.266 52.8595C323.934 52.4727 324.191 51.9376 324.238 51.3477C324.254 50.8595 324.227 50.4024 324.535 49.9532C324.789 49.5704 324.895 49.0313 325.02 48.5743C325.598 46.6915 326.145 44.8009 326.68 42.9415C327.027 41.7891 327.293 40.6524 327.594 39.5235C327.605 39.3399 327.512 39.1251 327.492 38.9298C327.113 38.6407 326.75 38.3165 326.328 38.0548C326.199 37.9806 325.957 38.0274 325.773 38.0157C325.336 38.2384 325.035 38.6485 324.719 39.1329C323.957 41.6837 323.18 44.3048 322.402 46.9298C322.234 47.4141 322.18 47.8907 321.848 48.2891C321.312 49.0157 321.184 49.9259 321.016 50.8243C321.09 51.2579 321.152 51.7306 321.215 52.1993ZM321.656 56.8868C321.129 56.7423 320.461 56.5626 319.895 56.4141C319.266 56.6602 319.047 57.0548 318.973 57.6016C319.211 58.1173 319.488 58.6446 319.699 59.1173C319.527 59.336 319.41 59.4923 319.293 59.6485C319.43 59.9884 319.5 60.422 320.094 60.4688C320.824 60.1368 321.559 59.6524 322.113 59.1212C322.742 58.1954 322.496 57.5626 321.656 56.8868Z" fill="white"/>
<path d="M328.895 54.2574C328.902 54.3707 329.043 54.4098 329.094 54.4996C329.629 54.7574 330.176 54.9762 330.945 54.9176C331.613 54.5308 331.871 53.9957 331.918 53.4058C331.934 52.9176 331.906 52.4605 332.215 52.0113C332.469 51.6285 332.574 51.0894 332.699 50.6324C333.277 48.7496 333.824 46.859 334.359 44.9996C334.707 43.8473 334.973 42.7105 335.273 41.5816C335.285 41.398 335.191 41.1832 335.172 40.9879C334.793 40.6988 334.43 40.3746 334.008 40.1129C333.879 40.0387 333.637 40.0855 333.453 40.0738C333.016 40.2965 332.715 40.7066 332.398 41.191C331.637 43.7418 330.859 46.3629 330.082 48.9879C329.914 49.4723 329.859 49.9488 329.527 50.3473C328.992 51.0738 328.863 51.984 328.695 52.8824C328.77 53.316 328.832 53.7887 328.895 54.2574ZM329.336 58.9449C328.809 58.8004 328.141 58.6207 327.574 58.4723C326.945 58.7183 326.727 59.1129 326.652 59.6598C326.891 60.1754 327.168 60.7027 327.379 61.1754C327.207 61.3941 327.09 61.5504 326.973 61.7066C327.109 62.0465 327.18 62.4801 327.773 62.5269C328.504 62.1949 329.238 61.7105 329.793 61.1793C330.422 60.2535 330.176 59.6207 329.336 58.9449Z" fill="white"/>
<path d="M306.183 244.731C306.148 244.985 306.206 245.306 306.222 245.653C306.753 245.919 306.941 246.579 307.671 246.677C308.534 246.583 309.3 246.157 309.933 245.544C310.402 245.11 310.597 244.56 310.398 243.931C310.222 243.349 309.96 242.817 309.468 242.411C309.187 242.333 308.909 242.251 308.663 242.181C307.159 242.392 306.374 243.267 306.183 244.731Z" fill="white"/>
<path d="M313.015 246.697C312.98 246.951 313.038 247.271 313.054 247.619C313.585 247.885 313.773 248.545 314.503 248.643C315.367 248.549 316.132 248.123 316.765 247.51C317.234 247.076 317.429 246.525 317.23 245.896C317.054 245.314 316.792 244.783 316.3 244.377C316.019 244.299 315.742 244.217 315.495 244.146C313.992 244.357 313.206 245.232 313.015 246.697Z" fill="white"/>
<path d="M319.847 248.664C319.812 248.917 319.87 249.238 319.886 249.585C320.417 249.851 320.605 250.511 321.335 250.609C322.199 250.515 322.964 250.089 323.597 249.476C324.066 249.042 324.261 248.492 324.062 247.863C323.886 247.281 323.624 246.75 323.132 246.343C322.851 246.265 322.574 246.183 322.327 246.113C320.824 246.324 320.038 247.199 319.847 248.664Z" fill="white"/>
<path d="M27.9883 326.682C28.3789 328.124 28.7656 329.534 29.0859 330.995C29.5625 333.018 30.1094 335.022 30.7266 337.01C31.6719 339.928 32.4102 342.901 33.1328 345.838C33.2109 346.12 33.1016 346.417 33.082 346.76C32.4258 346.979 31.7578 347.163 31.1055 347.413C30.5039 347.69 29.8828 348.049 29.2773 348.327C28.6719 348.608 27.9219 348.624 27.4258 349.436C27.6523 350.131 27.5312 351.073 28.4023 351.627C29.3477 351.635 30.125 351.159 31.0039 350.92C31.9062 350.069 33.125 349.963 34.2656 349.577C34.9844 349.303 35.8086 349.268 36.5117 348.663C36.6875 348.198 37.0039 347.694 37.0078 347.014C36.7969 346.655 36.4961 346.245 36.3008 345.807C36.0781 345.264 35.9219 344.702 35.7617 344.104C35.0312 341.428 34.3125 338.792 33.582 336.116C33.0352 334.112 32.4883 332.108 31.9414 330.1C31.4258 328.202 30.9414 326.292 30.4258 324.393C30.3203 324.006 30.25 323.608 29.8984 323.288C29.6016 323.448 29.2773 323.647 28.9805 323.803C28.7773 323.897 28.5742 323.838 28.418 323.694C28.2461 323.475 28.0742 323.256 27.9453 323.065C27.3594 322.999 26.8555 322.948 26.6953 322.917C24.6445 323.022 23.3008 324.182 21.6797 324.624C21.5039 324.67 21.3477 324.788 21.1914 324.905C21.0937 324.971 21.043 325.061 21.043 325.061C21.3594 325.807 21.668 326.514 22.0273 327.288C22.2578 327.299 22.5547 327.409 22.8437 327.366C23.418 327.249 23.9687 327.061 24.5586 326.862C25.0156 326.737 25.4883 326.534 25.9648 326.479C26.5469 326.393 26.9805 325.897 27.625 325.913C27.7383 326.182 27.9102 326.401 27.9883 326.682Z" fill="white"/>
<path d="M195.383 267.571C195.027 269.067 194.523 270.313 193.762 271.505C193.234 272.321 192.773 273.192 192.637 274.278C192.84 274.665 193.059 275.087 193.34 275.563C195.008 276.321 196.488 277.478 198.281 278.067C198.934 278.306 199.5 278.7 200.027 279.11C200.977 279.856 202.098 280.251 203.293 280.458C203.34 280.478 203.426 280.403 203.527 280.36C204.02 279.837 204.113 279.122 204.281 278.497C204.328 278.317 204.273 278.103 204.258 277.872C203.922 277.739 203.574 277.567 203.223 277.399C202.781 277.192 202.23 277.106 201.891 276.774C200.727 275.802 199.285 275.384 197.984 274.747C197.477 274.485 196.977 274.146 196.508 273.786C196.383 273.681 196.367 273.45 196.266 273.216C196.93 272.067 197.465 270.81 197.953 269.532C198.328 268.544 198.77 267.524 199.477 266.673C199.617 266.532 199.66 266.356 199.738 266.165C199.965 265.673 199.961 265.2 199.629 264.786C199.051 264.356 198.449 264.056 197.684 264.024C196.887 265.231 196.09 266.442 195.383 267.571Z" fill="white"/>
<path d="M233.111 190.321C233.932 189.025 232.428 188.583 231.463 188.47C230.854 188.427 229.924 188.482 229.377 188.048C228.772 188.005 228.697 187.743 229.127 187.271L229.576 186.052C230.041 184.868 230.873 183.423 230.947 182.177C230.99 180.95 229.682 180.278 228.705 181.196C227.338 182.427 227.26 185.068 226.76 186.708C226.381 186.497 226.018 186.243 225.623 186.001C224.947 185.88 224.861 185.583 225.272 185.157C225.334 184.505 225.893 183.724 226.104 183.083C226.463 181.907 226.658 180.61 226.506 179.353C226.166 176.849 224.049 175.376 221.693 176.61C219.389 177.786 218.108 180.814 219.076 183.243C219.35 183.9 219.779 184.493 220.272 185.06C220.584 185.372 221.537 185.896 221.693 186.271C221.975 187.036 220.647 189.06 220.623 190.243C220.639 193.653 224.428 194.107 226.502 192.107C227.057 191.583 227.299 190.747 227.834 190.267C228.389 189.743 228.123 189.818 229.01 190.185C230.018 190.575 232.295 191.54 233.111 190.321ZM223.201 184.325C221.647 183.06 219.721 180.181 222.256 178.763C223.397 178.146 224.486 178.829 224.674 180.075C224.873 181.536 223.893 183.157 223.201 184.325ZM223.955 189.599C223.693 188.97 223.756 188.321 223.983 187.712C224.611 188.075 225.287 188.384 225.936 188.704C225.557 189.302 224.502 190.915 223.955 189.599Z" fill="white"/>
<path d="M148.316 317.22C148.254 316.841 147.863 316.505 147.582 316.181C147.102 315.607 146.59 315.021 146.043 314.341C147.285 314.013 148.34 313.755 149.395 313.419C149.723 313.294 149.965 312.939 150.227 312.708C149.902 312.482 149.586 312.142 149.223 312.091C148.68 311.998 148.078 312.115 147.477 312.15C146.859 312.22 146.227 312.318 145.531 312.392C145.906 311.314 146.32 310.412 146.559 309.466C146.656 309.083 146.34 308.583 146.195 308.13C145.742 308.349 145.156 308.435 144.883 308.779C144.336 309.462 143.953 310.302 143.504 311.111C142.621 310.396 141.801 309.63 140.879 309.087C140.504 308.88 139.699 309.017 139.328 309.318C138.773 309.763 139.016 310.423 139.527 310.927C140.152 311.607 140.813 312.298 141.504 313.083C140.781 313.298 140.152 313.4 139.652 313.72C139.281 313.939 139.059 314.423 138.77 314.798C139.141 315.005 139.516 315.294 139.949 315.376C140.461 315.455 140.98 315.341 141.535 315.322C141.164 316.556 140.773 317.666 140.559 318.818C140.465 319.283 140.801 319.826 140.961 320.33C141.426 320.076 142.105 319.955 142.363 319.564C142.934 318.576 143.355 317.482 143.918 316.255C144.281 316.736 144.5 317.033 144.793 317.322C145.402 317.873 145.965 318.521 146.676 318.927C147.016 319.123 147.852 318.998 148.113 318.685C148.402 318.392 148.41 317.693 148.316 317.22Z" fill="white"/>
<path d="M268.411 336.853C268.434 336.626 268.481 336.435 268.462 336.232C268.497 335.536 267.618 335.29 266.993 334.97C264.055 334.091 262.344 333.947 259.442 333.478C258.575 333.333 258.7 333.634 258.864 334.345C259.036 335.157 259.348 335.532 259.774 335.568C261.911 335.751 263.434 335.95 265.532 336.427C267.122 336.779 268.309 337.7 268.411 336.853ZM263.493 331.978C264.598 332.111 266.657 332.743 267.79 333.052C269.145 333.411 268.231 331.517 267.364 331.204C265.266 330.462 263.614 330.365 261.407 329.931C260.641 329.779 260.321 329.435 260.36 330.517C260.426 331.907 262.266 331.782 263.493 331.978Z" fill="white"/>
<path d="M281.419 340.001C281.442 339.774 281.489 339.583 281.469 339.38C281.505 338.684 280.626 338.438 280.001 338.118C277.063 337.239 275.352 337.095 272.45 336.626C271.583 336.481 271.708 336.782 271.872 337.493C272.044 338.305 272.356 338.68 272.782 338.716C274.919 338.899 276.442 339.098 278.54 339.575C280.13 339.927 281.317 340.848 281.419 340.001ZM276.501 335.126C277.606 335.259 279.665 335.891 280.798 336.2C282.153 336.559 281.239 334.665 280.372 334.352C278.274 333.61 276.622 333.512 274.415 333.079C273.649 332.927 273.329 332.583 273.368 333.665C273.434 335.055 275.274 334.93 276.501 335.126Z" fill="white"/>
<path d="M349.444 319.792C349.226 319.046 349.112 318.241 348.737 317.616C348.425 317.093 347.733 316.546 347.183 316.479C345.534 316.276 344.249 317.245 344.022 318.565C343.659 320.28 344.792 320.847 346.382 321.054C345.706 322.194 345.061 323.003 344.804 323.948C344.581 324.565 344.651 325.538 345.015 325.999C345.253 326.308 346.39 326.222 346.964 325.909C349.222 324.815 350.167 322.187 349.444 319.792ZM346.686 305.472C346.585 304.12 345.116 302.706 344.034 302.788C342.843 302.823 341.698 304.269 341.804 305.675C341.905 307.026 343.343 308.062 344.901 307.835C346.304 307.624 346.608 306.62 346.686 305.472Z" fill="white"/>
</svg>
