<svg width="15" height="22" viewBox="0 0 15 22" fill="none" xmlns="http://www.w3.org/2000/svg">
<g clip-path="url(#clip0_0_22713)">
<path fill-rule="evenodd" clip-rule="evenodd" d="M14.6984 13.6983C14.3048 13.299 13.6664 13.299 13.2728 13.6983L8.54206 18.4959V1.0223C8.54206 0.457747 8.09061 0 7.534 0C6.97722 0 6.52593 0.457747 6.52593 1.0223V18.4959L1.79521 13.6985C1.40142 13.2993 0.763191 13.2993 0.369561 13.6985C-0.0242288 14.0977 -0.0242288 14.745 0.369561 15.1443L6.82117 21.6868C7.01787 21.8864 7.27601 21.9863 7.534 21.9863C7.79198 21.9863 8.04988 21.8864 8.24682 21.6868L14.6984 15.1441C15.0921 14.7448 15.0921 14.0976 14.6984 13.6983V13.6983Z" fill="#fff"/>
</g>
<defs>
<clipPath id="clip0_0_22713">
<rect width="15" height="22" fill="white"/>
</clipPath>
</defs>
</svg>
