<svg width="800" height="37" viewBox="0 0 800 37" fill="none" xmlns="http://www.w3.org/2000/svg">
<path d="M0.25 6C0.25 2.82436 2.82436 0.25 6 0.25H794C797.176 0.25 799.75 2.82436 799.75 6V36.75H0.25V6Z" fill="url(#paint0_linear_0_4)" stroke="#C1C1C1" stroke-width="0.5"/>
<rect x="776" y="13" width="24" height="24" fill="#BCBABC"/>
<path fill-rule="evenodd" clip-rule="evenodd" d="M788 20H789V25H794V26H789V31H788V26H783V25C783 25 788.005 24.9522 788 25C787.998 25.0021 788 20 788 20Z" fill="#6B696B"/>
<g clip-path="url(#clip0_0_4)">
<g filter="url(#filter0_d_0_4)">
<rect x="185" y="7" width="430" height="22" rx="4" fill="url(#paint1_linear_0_4)"/>
<rect x="184.75" y="6.75" width="430.5" height="22.5" rx="4.25" stroke="#D2D0D2" stroke-width="0.5"/>
</g>
<path d="M601.074 12.2445C599.563 12.3081 598.07 12.9148 596.919 14.0659C594.483 16.5027 594.483 20.4678 596.919 22.9047C599.356 25.3416 603.321 25.3416 605.758 22.9047C606.975 21.6882 607.584 20.091 607.586 18.4932L605.836 18.4932C605.834 19.6428 605.396 20.792 604.521 21.6673C602.766 23.4219 599.911 23.4219 598.157 21.6673C596.402 19.9127 596.402 17.0579 598.157 15.3033C598.967 14.4933 600.011 14.0583 601.074 13.996L601.074 16.0988L602.904 14.268L604.079 13.0936L603.674 12.6883L601.074 10.0884L601.074 12.2445Z" fill="#999999"/>
</g>
<circle cx="61.9342" cy="19" r="5.75" fill="#909095" stroke="#6E6E71" stroke-width="0.5"/>
<circle cx="41.9343" cy="19" r="5.75" fill="#909095" stroke="#6E6E71" stroke-width="0.5"/>
<circle cx="21.9343" cy="19" r="5.75" fill="#909095" stroke="#6E6E71" stroke-width="0.5"/>
<defs>
<filter id="filter0_d_0_4" x="184.5" y="6.5" width="431" height="23.5" filterUnits="userSpaceOnUse" color-interpolation-filters="sRGB">
<feFlood flood-opacity="0" result="BackgroundImageFix"/>
<feColorMatrix in="SourceAlpha" type="matrix" values="0 0 0 0 0 0 0 0 0 0 0 0 0 0 0 0 0 0 127 0" result="hardAlpha"/>
<feOffset dy="0.5"/>
<feColorMatrix type="matrix" values="0 0 0 0 0.65098 0 0 0 0 0.643137 0 0 0 0 0.65098 0 0 0 1 0"/>
<feBlend mode="normal" in2="BackgroundImageFix" result="effect1_dropShadow_0_4"/>
<feBlend mode="normal" in="SourceGraphic" in2="effect1_dropShadow_0_4" result="shape"/>
</filter>
<linearGradient id="paint0_linear_0_4" x1="0" y1="0" x2="0" y2="37" gradientUnits="userSpaceOnUse">
<stop stop-color="#F7F6F7"/>
<stop offset="1" stop-color="#D7D5D7"/>
</linearGradient>
<linearGradient id="paint1_linear_0_4" x1="185" y1="7" x2="185" y2="29" gradientUnits="userSpaceOnUse">
<stop stop-color="#FEFEFE"/>
<stop offset="1" stop-color="#F2F1F2"/>
</linearGradient>
<clipPath id="clip0_0_4">
<rect width="430" height="22" fill="white" transform="translate(185 7)"/>
</clipPath>
</defs>
</svg>
